<svg width="49" height="49" viewBox="0 0 49 49" fill="none" xmlns="http://www.w3.org/2000/svg">
<path fill-rule="evenodd" clip-rule="evenodd" d="M24.1494 42.4949C24.3413 42.7066 24.6587 42.7066 24.8506 42.4949C26.8526 40.2857 36.75 28.8355 36.75 18.375C36.75 11.6095 31.2655 6.125 24.5 6.125C17.7345 6.125 12.25 11.6095 12.25 18.375C12.25 28.8355 22.1474 40.2857 24.1494 42.4949Z" stroke="white" stroke-width="1.5"/>
<path fill-rule="evenodd" clip-rule="evenodd" d="M24.5003 22.4582C26.7555 22.4582 28.5837 20.63 28.5837 18.3748C28.5837 16.1197 26.7555 14.2915 24.5003 14.2915C22.2452 14.2915 20.417 16.1197 20.417 18.3748C20.417 20.63 22.2452 22.4582 24.5003 22.4582Z" stroke="white" stroke-width="1.5"/>
</svg>
