<svg width="60" height="90" viewBox="0 0 60 90" fill="none" xmlns="http://www.w3.org/2000/svg">
<path d="M30 0C14.0072 0 0.996094 13.0112 0.996094 29.0039C0.996094 50.6869 26.7512 87.3367 27.8476 88.8863C28.3417 89.5848 29.1443 90 30 90C30.8557 90 31.6583 89.5848 32.1524 88.8863C33.2488 87.3367 59.0039 50.6869 59.0039 29.0039C59.0039 13.0112 45.9928 0 30 0Z" fill="url(#paint0_linear)"/>
<path d="M30 42.1875C37.2811 42.1875 43.1836 36.285 43.1836 29.0039C43.1836 21.7228 37.2811 15.8203 30 15.8203C22.7189 15.8203 16.8164 21.7228 16.8164 29.0039C16.8164 36.285 22.7189 42.1875 30 42.1875Z" fill="url(#paint1_linear)"/>
<defs>
<linearGradient id="paint0_linear" x1="30" y1="90" x2="30" y2="0" gradientUnits="userSpaceOnUse">
<stop stop-color="#192944"/>
<stop offset="1" stop-color="#CCDDFA"/>
</linearGradient>
<linearGradient id="paint1_linear" x1="30" y1="42.1875" x2="30" y2="15.8203" gradientUnits="userSpaceOnUse">
<stop stop-color="#FFF2C3"/>
<stop offset="0.9973" stop-color="#F0FFF4"/>
</linearGradient>
</defs>
</svg>
