<svg width="126" height="126" viewBox="0 0 126 126" fill="none" xmlns="http://www.w3.org/2000/svg">
<g clip-path="url(#clip0)">
<path d="M62.9505 125.596C62.5603 125.596 62.1667 125.532 61.791 125.407C33.9897 116.141 15.3076 90.222 15.3076 60.9141V18.8273C15.3076 16.8016 16.9468 15.1625 18.9725 15.1625C32.6333 15.1625 45.8575 11.1575 57.2243 3.58109L60.9178 1.11881C62.1489 0.295684 63.7524 0.295684 64.9835 1.11881L68.6769 3.58109C80.0436 11.1578 93.2678 15.1625 106.929 15.1625C108.954 15.1625 110.594 16.8016 110.594 18.8273V60.9141C110.594 90.222 91.9115 116.141 64.1103 125.407C63.7343 125.532 63.3405 125.596 62.9505 125.596Z" fill="url(#paint0_linear)"/>
<path d="M62.9503 96.2774C44.7622 96.2774 29.9668 81.4819 29.9668 63.2938C29.9668 45.1057 44.7622 30.3103 62.9503 30.3103C81.1384 30.3103 95.9339 45.1057 95.9339 63.2938C95.9339 81.4819 81.1384 96.2774 62.9503 96.2774Z" fill="#F6F9FF"/>
<path d="M51.5651 44.1748C58.3336 40.607 66.5976 40.9565 73.1224 45.0049C75.088 46.2553 75.7434 48.9214 74.4467 50.9598C73.1966 52.925 70.5302 53.5808 68.4918 52.2841C64.6341 49.83 59.6518 49.6255 55.5827 51.843C53.1398 53.0091 50.632 51.8528 49.7265 49.9581C48.7008 47.8737 49.4348 45.2732 51.5651 44.1748ZM65.2585 65.5642C63.962 67.6022 61.342 68.1853 59.3036 66.8885C57.2651 65.5918 56.6829 62.9716 57.9793 60.9336C59.276 58.8952 61.8958 58.3126 63.9342 59.6094C65.9726 60.9061 66.5552 63.5258 65.2585 65.5642ZM50.1882 81.5396C43.5639 77.3256 39.7453 69.9882 40.1078 62.346C40.1539 60.0232 42.1718 58.1371 44.5669 58.2296C46.8891 58.2754 48.7752 60.2933 48.6832 62.6887C48.5184 67.287 50.815 71.7135 54.6732 74.1679C56.7116 75.4646 57.367 78.1306 56.0703 80.1691C54.7739 82.207 52.2261 82.8361 50.1882 81.5396ZM71.7918 82.297C69.3516 83.4632 66.8865 82.2839 65.9622 80.5313C64.8635 78.4008 65.5975 75.8003 67.7279 74.7016C69.6663 73.5833 71.3335 72.0877 72.5376 70.1948C73.788 68.2292 74.4825 66.0125 74.528 63.6901C74.6208 61.2951 76.5916 59.4817 78.9871 59.5738C81.3828 59.6663 83.2422 61.5649 83.1504 63.9601C83.0647 67.7911 81.9007 71.5496 79.8168 74.8254C77.8256 77.9555 75.034 80.5763 71.7918 82.297Z" fill="#354560"/>
</g>
<defs>
<linearGradient id="paint0_linear" x1="62.9506" y1="125.596" x2="62.9506" y2="0.501465" gradientUnits="userSpaceOnUse">
<stop stop-color="#192944"/>
<stop offset="1" stop-color="#CCDDFA"/>
</linearGradient>
<clipPath id="clip0">
<rect width="125.095" height="125.095" fill="white" transform="translate(0.402344 0.501465)"/>
</clipPath>
</defs>
</svg>
