<svg width="98" height="128" viewBox="0 0 98 128" fill="none" xmlns="http://www.w3.org/2000/svg">
<path d="M48.8221 127.623C48.3659 127.623 47.9098 127.539 47.4771 127.371C33.6053 121.976 21.8315 112.632 13.428 100.348C5.02471 88.0631 0.583008 73.7027 0.583008 58.8191V26.9397C0.583008 25.9554 0.974115 25.0117 1.66999 24.316L23.9342 2.05183C24.6301 1.3557 25.5738 0.964844 26.5579 0.964844H71.0863C72.0706 0.964844 73.0144 1.3557 73.71 2.05183L95.9742 24.316C96.6703 25.0117 97.0612 25.9554 97.0612 26.9397V58.8191C97.0612 73.7027 92.6195 88.0631 84.216 100.348C75.8125 112.632 64.0387 121.976 50.1669 127.371C49.7344 127.539 49.2783 127.623 48.8221 127.623Z" fill="url(#paint0_linear)"/>
<path d="M48.8219 88.8987C31.7712 88.8987 17.8994 75.0269 17.8994 57.9762C17.8994 40.9255 31.7712 27.0537 48.8219 27.0537C65.8726 27.0537 79.7444 40.9255 79.7444 57.9762C79.7444 75.0269 65.8726 88.8987 48.8219 88.8987ZM48.8219 34.4751C35.8634 34.4751 25.3208 45.0177 25.3208 57.9762C25.3208 70.9347 35.8634 81.4773 48.8219 81.4773C61.7804 81.4773 72.323 70.9347 72.323 57.9762C72.323 45.0177 61.7804 34.4751 48.8219 34.4751ZM52.5326 57.9762V45.6072C52.5326 43.5579 50.8712 41.8965 48.8219 41.8965C46.7726 41.8965 45.1112 43.5579 45.1112 45.6072V54.2655H36.4529C34.4036 54.2655 32.7422 55.9269 32.7422 57.9762C32.7422 60.0255 34.4036 61.6869 36.4529 61.6869H48.8219C50.8712 61.6869 52.5326 60.0255 52.5326 57.9762Z" fill="#F6F9FF"/>
<defs>
<linearGradient id="paint0_linear" x1="48.8221" y1="127.623" x2="48.8221" y2="0.964844" gradientUnits="userSpaceOnUse">
<stop stop-color="#192944"/>
<stop offset="1" stop-color="#CCDDFA"/>
</linearGradient>
</defs>
</svg>
