<svg width="129" height="129" viewBox="0 0 129 129" fill="none" xmlns="http://www.w3.org/2000/svg">
<g clip-path="url(#clip0)">
<path d="M127.406 79.9652C109.138 61.7151 49.1556 1.82878 53.002 5.68872C51.5746 4.18612 49.1704 4.18612 47.7429 5.68872L26.4811 26.9503L56.8322 73.2476L47.7051 64.0476C46.2501 62.5696 43.8572 62.5653 42.3859 64.0366L19.1421 87.2801H7.7972V87.4597L7.67349 87.2801L7.7972 76.0106C7.7972 73.9067 6.14459 72.2541 4.04069 72.2541C1.93679 72.2541 0.28418 73.9067 0.28418 76.0106V121.089C0.28418 123.192 1.93679 124.845 4.04069 124.845C6.14459 124.845 7.7972 123.192 7.7972 121.089V109.819H41.7325C47.9683 109.819 53.002 104.785 53.002 98.5497C53.002 94.9442 51.3402 91.7346 48.6891 89.67L58.292 80.0128C59.0798 79.2192 59.4387 78.1603 59.3728 77.1235L69.3802 92.3887L98.1045 82.6919L90.1635 90.6329C88.7222 92.0742 88.6694 94.4546 90.1707 95.9559L100.839 106.551C102.304 108.001 104.674 108.009 106.143 106.54L116.738 95.9449C118.205 94.4811 118.205 92.1113 116.745 90.6402L106.153 79.9747L114.067 77.3031C118.94 82.1272 122.088 85.2739 122.094 85.2769C123.561 86.7442 125.938 86.7442 127.406 85.2769C128.873 83.8134 128.873 81.4325 127.406 79.9652Z" fill="url(#paint0_linear)"/>
<path d="M76.8933 77.3629L26.4807 26.9503L15.8122 37.5439C14.3101 38.8957 14.3099 41.4507 15.8122 42.8027L79.5978 106.513C80.9504 108.016 83.505 108.016 84.8569 106.513L114.067 77.3033L76.8933 77.3629ZM53.0019 32.1891C54.469 30.7221 54.469 28.3437 53.0019 26.8766C51.5349 25.4096 49.1565 25.4096 47.6895 26.8766C46.2224 28.3437 46.2224 30.7221 47.6895 32.1891C49.1563 33.6561 51.5349 33.6561 53.0019 32.1891Z" fill="#354560"/>
</g>
<defs>
<linearGradient id="paint0_linear" x1="64.3953" y1="124.845" x2="64.3953" y2="4.56177" gradientUnits="userSpaceOnUse">
<stop stop-color="#C2D3F0"/>
<stop offset="1" stop-color="#BBCDED"/>
</linearGradient>
<clipPath id="clip0">
<rect width="128.222" height="128.222" fill="white" transform="translate(0.28418 0.592285)"/>
</clipPath>
</defs>
</svg>
