<svg width="61" height="55" viewBox="0 0 61 55" fill="none" xmlns="http://www.w3.org/2000/svg">
<linearGradient id="type_1_1" x1="30.5" y1="54.3066" x2="30.5" y2="15.5137" gradientUnits="userSpaceOnUse">
<stop stop-color="#19493e"/>
<stop offset="1" stop-color="#c3e2db"/>
</linearGradient>
<linearGradient id="type_1_2" x1="30.5" y1="50.7324" x2="30.5" y2="0.693359" gradientUnits="userSpaceOnUse">
<stop stop-color="#19493e"/>
<stop offset="1" stop-color="#c3e2db"/>
</linearGradient>
<path d="M7.26758 33.5196L10.8418 36.2549V42.1057C10.8418 43.0935 11.6411 43.8928 12.6289 43.8928C13.6167 43.8928 14.416 43.0935 14.416 42.1057V36.2549L17.9902 33.1246V24.6657L21.0408 21.6151L18.5137 15.5138L12.6289 17.8244L6.74396 15.5137L4.09772 21.615L7.26758 24.6657V33.5196ZM59.2129 50.7324H56.7433L53.8516 44.9487V38.2226C53.8516 37.2348 53.0522 36.4355 52.0645 36.4355C51.0767 36.4355 50.2773 37.2348 50.2773 38.2226V45.371C50.2773 45.6485 50.3419 45.9225 50.4658 46.1703L52.7469 50.7324H33.3918L35.6728 46.1703C35.7968 45.9225 35.8613 45.6485 35.8613 45.371V38.2226C35.8613 37.2348 35.062 36.4355 34.0742 36.4355C33.0864 36.4355 32.2871 37.2348 32.2871 38.2226V44.9487L29.3953 50.7324H17.9902L14.1714 48.9452H6.55273L3.57422 50.7324H1.78711C0.799314 50.7324 0 51.5317 0 52.5195C0 53.5073 0.799314 54.3066 1.78711 54.3066H59.2129C60.2007 54.3066 61 53.5073 61 52.5195C61 51.5317 60.2007 50.7324 59.2129 50.7324Z" fill="url(#type_1_1)"/>
<path d="M17.9902 43.584H15.875C15.1366 41.5065 13.1728 40.0098 10.8418 40.0098C8.51081 40.0098 6.54702 41.5065 5.80858 43.584H3.57422C1.60018 43.584 0 45.1842 0 47.1582C0 49.1322 1.60018 50.7324 3.57422 50.7324H17.9902C19.9643 50.7324 21.5645 49.1322 21.5645 47.1582C21.5645 45.1842 19.9643 43.584 17.9902 43.584ZM10.8418 36.2549V24.6658L7.7912 21.6152C7.09316 20.9171 7.09316 19.7861 7.7912 19.0881C8.48925 18.39 9.62025 18.39 10.3183 19.0881L12.6289 21.3987L14.9396 19.088C15.6377 18.3899 16.7687 18.3899 17.4667 19.088C18.1648 19.786 18.1648 20.917 17.4667 21.615L14.416 24.6658V36.2549C20.4624 35.3784 25.1387 30.211 25.1387 23.9258C25.1387 21.2381 24.2818 18.6744 22.6622 16.5086C21.9537 15.5609 21.5645 14.3917 21.5645 13.2031C21.5645 8.90811 18.0845 0.693359 12.6289 0.693359C7.17334 0.693359 3.57422 8.9081 3.57422 13.2118C3.57422 14.4056 3.1938 15.547 2.47646 16.5086C0.856859 18.6744 0 21.2381 0 23.9258C0 30.211 4.79541 35.3784 10.8418 36.2549ZM59.2129 43.584H26.9258C25.938 43.584 25.1387 44.3833 25.1387 45.3711C25.1387 46.3589 25.938 47.1582 26.9258 47.1582H59.2129C60.2007 47.1582 61 46.3589 61 45.3711C61 44.3833 60.2007 43.584 59.2129 43.584ZM59.2129 29.2871H26.9258C25.938 29.2871 25.1387 30.0864 25.1387 31.0742V38.2227C25.1387 39.2105 25.938 40.0098 26.9258 40.0098H59.2129C60.2007 40.0098 61 39.2105 61 38.2227V31.0742C61 30.0864 60.2007 29.2871 59.2129 29.2871Z" fill="url(#type_1_2)"/>
</svg>
