<svg width="61" height="61" viewBox="0 0 61 61" fill="none" xmlns="http://www.w3.org/2000/svg">
<path d="M46.7031 7.26758H48.4902C49.4911 7.26758 50.2773 6.48137 50.2773 5.48047C50.2773 4.47957 49.4911 3.69336 48.4902 3.69336H12.5098C11.5089 3.69336 10.7227 4.47957 10.7227 5.48047C10.7227 6.48137 11.5089 7.26758 12.5098 7.26758H14.2969L22.3984 9.05469H19.6582V37.6484H28.7129L21.5645 44.7969L25.1387 57.3066H35.8613L39.4355 44.7969L32.2871 37.6484H41.2227V9.05469H38.6016L46.7031 7.26758ZM59.2129 14.416H44.916C43.9291 14.416 43.1289 15.2162 43.1289 16.2031V53.7324C43.1289 55.7065 44.7291 57.3066 46.7031 57.3066H59.2129C60.1999 57.3066 61 56.5065 61 55.5195V16.2031C61 15.2162 60.1999 14.416 59.2129 14.416ZM16.084 14.416H1.78711C0.800148 14.416 0 15.2162 0 16.2031V55.5195C0 56.5065 0.800148 57.3066 1.78711 57.3066H14.2969C16.2709 57.3066 17.8711 55.7065 17.8711 53.7324V16.2031C17.8711 15.2162 17.0709 14.416 16.084 14.416Z" fill="url(#paint0_linear)"/>
<path d="M14.2969 57.3066H25.1387V44.7969C25.1387 41.8302 27.5333 39.4355 30.5 39.4355C33.4667 39.4355 35.8613 41.8302 35.8613 44.7969V57.3066H46.7031V7.26758H14.2969V57.3066ZM26.9258 14.416H28.7129V12.6289C28.7129 11.628 29.4991 10.8418 30.5 10.8418C31.5009 10.8418 32.2871 11.628 32.2871 12.6289V14.416H34.0742C35.0751 14.416 35.8613 15.2022 35.8613 16.2031C35.8613 17.204 35.0751 17.9902 34.0742 17.9902H32.2871V19.7773C32.2871 20.7782 31.5009 21.5645 30.5 21.5645C29.4991 21.5645 28.7129 20.7782 28.7129 19.7773V17.9902H26.9258C25.9249 17.9902 25.1387 17.204 25.1387 16.2031C25.1387 15.2022 25.9249 14.416 26.9258 14.416ZM23.3516 25.1387H37.6484C38.6493 25.1387 39.4355 25.9249 39.4355 26.9258C39.4355 27.9267 38.6493 28.7129 37.6484 28.7129H23.3516C22.3507 28.7129 21.5645 27.9267 21.5645 26.9258C21.5645 25.9249 22.3507 25.1387 23.3516 25.1387ZM23.3516 32.2871H37.6484C38.6493 32.2871 39.4355 33.0733 39.4355 34.0742C39.4355 35.0751 38.6493 35.8613 37.6484 35.8613H23.3516C22.3507 35.8613 21.5645 35.0751 21.5645 34.0742C21.5645 33.0733 22.3507 32.2871 23.3516 32.2871ZM7.14844 21.5645C6.16064 21.5645 5.36133 22.3638 5.36133 23.3516V26.9258C5.36133 27.9136 6.16064 28.7129 7.14844 28.7129C8.13623 28.7129 8.93555 27.9136 8.93555 26.9258V23.3516C8.93555 22.3638 8.13623 21.5645 7.14844 21.5645ZM7.14844 32.2871C6.16064 32.2871 5.36133 33.0864 5.36133 34.0742V37.6484C5.36133 38.6362 6.16064 39.4355 7.14844 39.4355C8.13623 39.4355 8.93555 38.6362 8.93555 37.6484V34.0742C8.93555 33.0864 8.13623 32.2871 7.14844 32.2871ZM7.14844 43.0098C6.16064 43.0098 5.36133 43.8091 5.36133 44.7969V48.3711C5.36133 49.3589 6.16064 50.1582 7.14844 50.1582C8.13623 50.1582 8.93555 49.3589 8.93555 48.3711V44.7969C8.93555 43.8091 8.13623 43.0098 7.14844 43.0098ZM53.8516 21.5645C52.8638 21.5645 52.0645 22.3638 52.0645 23.3516V26.9258C52.0645 27.9136 52.8638 28.7129 53.8516 28.7129C54.8394 28.7129 55.6387 27.9136 55.6387 26.9258V23.3516C55.6387 22.3638 54.8394 21.5645 53.8516 21.5645ZM53.8516 32.2871C52.8638 32.2871 52.0645 33.0864 52.0645 34.0742V37.6484C52.0645 38.6362 52.8638 39.4355 53.8516 39.4355C54.8394 39.4355 55.6387 38.6362 55.6387 37.6484V34.0742C55.6387 33.0864 54.8394 32.2871 53.8516 32.2871ZM53.8516 43.0098C52.8638 43.0098 52.0645 43.8091 52.0645 44.7969V48.3711C52.0645 49.3589 52.8638 50.1582 53.8516 50.1582C54.8394 50.1582 55.6387 49.3589 55.6387 48.3711V44.7969C55.6387 43.8091 54.8394 43.0098 53.8516 43.0098Z" fill="url(#paint1_linear)"/>
<defs>
<linearGradient id="paint0_linear" x1="31" y1="1.5" x2="31" y2="66" gradientUnits="userSpaceOnUse">
<stop stop-color="#192944"/>
<stop offset="1" stop-color="#CCDDFA"/>
</linearGradient>
<linearGradient id="paint1_linear" x1="30.5" y1="57.3066" x2="30.5" y2="7.26758" gradientUnits="userSpaceOnUse">
<stop stop-color="#192944"/>
<stop offset="1" stop-color="#CCDDFA"/>
</linearGradient>
</defs>
</svg>
