<svg width="20" height="20" viewBox="0 0 20 20" fill="none" xmlns="http://www.w3.org/2000/svg">
<path d="M14.167 1.66673H5.83366C3.53247 1.66673 1.66699 3.53221 1.66699 5.8334V14.1667C1.66699 16.4679 3.53247 18.3334 5.83366 18.3334H14.167C16.4682 18.3334 18.3337 16.4679 18.3337 14.1667V5.8334C18.3337 3.53221 16.4682 1.66673 14.167 1.66673Z" stroke="white" stroke-width="1.70732" stroke-linecap="round" stroke-linejoin="round"/>
<path d="M13.3337 9.47513C13.4366 10.1687 13.3181 10.877 12.9952 11.4993C12.6723 12.1216 12.1614 12.6263 11.5351 12.9415C10.9088 13.2567 10.1991 13.3665 9.5069 13.2551C8.81468 13.1437 8.17521 12.8169 7.67944 12.3211C7.18367 11.8253 6.85685 11.1859 6.74546 10.4936C6.63408 9.80142 6.74379 9.09171 7.05901 8.46544C7.37423 7.83917 7.8789 7.32825 8.50123 7.00533C9.12356 6.68241 9.83187 6.56395 10.5254 6.6668C11.2328 6.7717 11.8878 7.10135 12.3935 7.60705C12.8992 8.11275 13.2288 8.76769 13.3337 9.47513Z" stroke="white" stroke-width="1.70732" stroke-linecap="round" stroke-linejoin="round"/>
<path d="M14.583 5.41675H14.5921" stroke="white" stroke-width="1.70732" stroke-linecap="round" stroke-linejoin="round"/>
</svg>
