<svg width="61" height="61" viewBox="0 0 61 61" fill="none" xmlns="http://www.w3.org/2000/svg">
<path d="M53.7324 25.0195C52.7446 25.0195 51.9453 25.8188 51.9453 26.8066C51.9453 30.5816 51.4915 35.2431 50.5963 40.6602C49.6975 46.0949 45.0045 50.0391 39.4355 50.0391C38.4478 50.0391 37.6484 50.8384 37.6484 51.8262C37.6484 52.814 38.4478 53.6133 39.4355 53.6133C46.762 53.6133 52.9384 48.4108 54.1217 41.2431C55.0501 35.634 55.5195 30.777 55.5195 26.8066C55.5195 25.8188 54.7202 25.0195 53.7324 25.0195ZM48.3711 23.2324C48.3711 10.4224 37.9487 0 25.1387 0C12.3287 0 1.90625 10.4224 1.90625 23.2324C1.90625 36.0424 12.3287 46.4648 25.1387 46.4648C37.9487 46.4648 48.3711 36.0424 48.3711 23.2324ZM32.2871 50.2773C30.315 50.2773 28.7129 51.8812 28.7129 53.8516C28.7129 55.8219 30.315 57.4258 32.2871 57.4258C34.2592 57.4258 35.8613 55.8219 35.8613 53.8516C35.8613 51.8812 34.2592 50.2773 32.2871 50.2773ZM17.9902 50.2773C16.0181 50.2773 14.416 51.8812 14.416 53.8516C14.416 55.8219 16.0181 57.4258 17.9902 57.4258C19.9624 57.4258 21.5645 55.8219 21.5645 53.8516C21.5645 51.8812 19.9624 50.2773 17.9902 50.2773Z" fill="url(#paint0_linear)"/>
<path d="M25.1387 28.5938C28.095 28.5938 30.5 26.1888 30.5 23.2324C30.5 20.2761 28.095 17.8711 25.1387 17.8711C22.1823 17.8711 19.7773 20.2761 19.7773 23.2324C19.7773 26.1888 22.1823 28.5938 25.1387 28.5938ZM53.7324 17.8711C50.7761 17.8711 48.3711 20.2761 48.3711 23.2324C48.3711 26.1888 50.7761 28.5938 53.7324 28.5938C56.6888 28.5938 59.0938 26.1888 59.0938 23.2324C59.0938 20.2761 56.6888 17.8711 53.7324 17.8711ZM39.4355 46.4648H10.8418C9.854 46.4648 9.05469 47.2642 9.05469 48.252V59.2129C9.05469 60.2007 9.854 61 10.8418 61H39.4355C40.4233 61 41.2227 60.2007 41.2227 59.2129V48.252C41.2227 47.2642 40.4233 46.4648 39.4355 46.4648ZM17.9902 55.6387C17.0033 55.6387 16.2031 54.8385 16.2031 53.8516C16.2031 52.8644 17.0033 52.0645 17.9902 52.0645C18.9772 52.0645 19.7773 52.8644 19.7773 53.8516C19.7773 54.8385 18.9772 55.6387 17.9902 55.6387ZM32.2871 55.6387C31.3001 55.6387 30.5 54.8385 30.5 53.8516C30.5 52.8644 31.3001 52.0645 32.2871 52.0645C33.2741 52.0645 34.0742 52.8644 34.0742 53.8516C34.0742 54.8385 33.2741 55.6387 32.2871 55.6387Z" fill="url(#paint1_linear)"/>
<defs>
<linearGradient id="paint0_linear" x1="28.7129" y1="57.4258" x2="28.7129" y2="0" gradientUnits="userSpaceOnUse">
<stop stop-color="#192944"/>
<stop offset="1" stop-color="#CCDDFA"/>
</linearGradient>
<linearGradient id="paint1_linear" x1="34.0742" y1="61" x2="34.0742" y2="17.8711" gradientUnits="userSpaceOnUse">
<stop stop-color="#192944"/>
<stop offset="1" stop-color="#CCDDFA"/>
</linearGradient>
</defs>
</svg>
