<svg viewBox="1 2 22 16" fill="none" xmlns="http://www.w3.org/2000/svg">
<path d="M21.6802 2.47964C21.4735 2.33095 21.2219 2.2322 20.9527 2.1941C20.6835 2.15599 20.407 2.17998 20.153 2.26347L2.85075 7.92792C2.54921 8.02668 2.29415 8.20414 2.12373 8.43375C1.9533 8.66337 1.87666 8.93279 1.90528 9.20172C1.9339 9.47066 2.06624 9.72464 2.2825 9.92567C2.49876 10.1267 2.78731 10.264 3.105 10.317L7.4999 11.0496V15.6241C7.49964 15.8714 7.58746 16.1132 7.75223 16.3189C7.917 16.5246 8.15132 16.685 8.42551 16.7796C8.69969 16.8743 9.00142 16.899 9.29247 16.8506C9.58353 16.8023 9.85082 16.683 10.0605 16.508L12.4927 14.4812L16.1842 17.1882C16.456 17.3894 16.8067 17.5006 17.1702 17.501C17.3282 17.5009 17.4852 17.4802 17.6355 17.4396C17.8834 17.374 18.1064 17.2555 18.2822 17.0957C18.4579 16.936 18.5804 16.7406 18.6372 16.5291L22.1635 3.70628C22.2249 3.48454 22.2124 3.25302 22.1272 3.03681C22.042 2.8206 21.8874 2.62794 21.6802 2.47972V2.47964ZM8.07609 9.87081L3.39937 9.09136L16.4945 4.80417L8.07609 9.87081ZM8.9999 15.6235V11.9197L11.3643 13.6535L8.9999 15.6235ZM17.1751 16.2498L9.45084 10.5853L20.5738 3.89097L17.1751 16.2498Z" fill="white"/>
</svg>
