<svg width="55" height="61" viewBox="0 0 55 61" fill="none" xmlns="http://www.w3.org/2000/svg">
<path d="M52.5195 14.5352H38.2227C38.0307 14.5352 37.8405 14.5666 37.6572 14.6276L27.5 18.0133L17.3428 14.6276C17.1595 14.5666 16.9693 14.5352 16.7773 14.5352H2.48047C1.49267 14.5352 0.693359 15.3345 0.693359 16.3223V44.916C0.693359 45.9038 1.49267 46.7031 2.48047 46.7031H19.7562C19.7501 46.7093 19.7432 46.7143 19.7373 46.7205L13.0897 53.6892C12.7075 54.0906 12.533 54.6455 12.6167 55.1936C12.7005 55.7416 13.0338 56.2181 13.5173 56.4867L21.2731 60.7765C21.7158 61.0208 22.2206 61.0587 22.6693 60.9196C23.1335 60.7747 23.5193 60.4484 23.7374 60.0121L27.4198 52.649C27.472 52.5448 27.4695 52.4288 27.5001 52.3187C27.5306 52.4289 27.5282 52.5449 27.5804 52.649L31.2628 60.0121C31.481 60.4484 31.8666 60.7747 32.3309 60.9196C32.7796 61.0586 33.2844 61.0208 33.7271 60.7765L41.4829 56.4867C41.9664 56.2179 42.2996 55.7415 42.3835 55.1936C42.4673 54.6455 42.2927 54.0906 41.9105 53.6892L35.263 46.7205C35.2572 46.7144 35.2511 46.709 35.2452 46.7031H52.5195C53.5073 46.7031 54.3066 45.9038 54.3066 44.916V16.3223C54.3066 15.3345 53.5073 14.5352 52.5195 14.5352ZM21.545 46.2441C21.9087 45.9172 22.1387 45.4443 22.1387 44.916C22.1387 45.7311 22.3223 46.5038 22.6491 47.1961C22.6461 47.1899 22.6426 47.184 22.6397 47.1778C22.4219 46.7243 22.0214 46.3884 21.545 46.2441ZM27.5593 51.0941C27.5186 51.1815 27.526 51.2784 27.5 51.37C27.474 51.2784 27.4814 51.1815 27.4407 51.0941C27.2378 50.6606 26.8733 50.3301 26.4304 50.1699C26.7761 50.2402 27.1339 50.2772 27.5001 50.2772C27.8664 50.2772 28.224 50.2401 28.5699 50.1699C28.1267 50.3301 27.7623 50.6607 27.5593 51.0941ZM32.3605 47.1778C32.3575 47.184 32.354 47.1899 32.351 47.196C32.6777 46.5037 32.8613 45.7311 32.8613 44.916C32.8613 45.4443 33.0913 45.9172 33.455 46.2441C32.9786 46.3884 32.5782 46.7243 32.3605 47.1778Z" fill="url(#paint0_linear)"/>
<path d="M48.9453 0H6.05469C5.06689 0 4.26758 0.799314 4.26758 1.78711C4.26758 2.7749 5.06689 3.57422 6.05469 3.57422H14.9902V16.3223C14.9902 17.0919 15.4824 17.7744 16.2119 18.0169L26.9346 21.5911C27.3021 21.7136 27.6936 21.7152 28.0654 21.5911L38.7881 18.0169C39.5176 17.7744 40.0098 17.0919 40.0098 16.3223V3.57422H48.9453C49.9331 3.57422 50.7324 2.7749 50.7324 1.78711C50.7324 0.799314 49.9331 0 48.9453 0ZM16.7773 32.4062H9.62891C8.64111 32.4062 7.8418 33.2056 7.8418 34.1934C7.8418 35.1812 8.64111 35.9805 9.62891 35.9805H16.7773C17.7651 35.9805 18.5645 35.1812 18.5645 34.1934C18.5645 33.2056 17.7651 32.4062 16.7773 32.4062ZM45.3711 25.2578H9.62891C8.64111 25.2578 7.8418 26.0571 7.8418 27.0449C7.8418 28.0327 8.64111 28.832 9.62891 28.832H45.3711C46.3589 28.832 47.1582 28.0327 47.1582 27.0449C47.1582 26.0571 46.3589 25.2578 45.3711 25.2578ZM45.3711 32.4062H38.2227C37.2349 32.4062 36.4355 33.2056 36.4355 34.1934C36.4355 35.1812 37.2349 35.9805 38.2227 35.9805H45.3711C46.3589 35.9805 47.1582 35.1812 47.1582 34.1934C47.1582 33.2056 46.3589 32.4062 45.3711 32.4062ZM27.5 35.9805C22.5676 35.9805 18.5645 39.9836 18.5645 44.916C18.5645 49.8484 22.5676 53.8516 27.5 53.8516C32.4324 53.8516 36.4355 49.8484 36.4355 44.916C36.4355 39.9836 32.4324 35.9805 27.5 35.9805ZM27.5 46.7031C26.4991 46.7031 25.7129 45.9167 25.7129 44.916C25.7129 43.9151 26.4991 43.1289 27.5 43.1289C28.5009 43.1289 29.2871 43.9151 29.2871 44.916C29.2871 45.9167 28.5009 46.7031 27.5 46.7031Z" fill="url(#paint1_linear)"/>
<defs>
<linearGradient id="paint0_linear" x1="27.5" y1="60.9999" x2="27.5" y2="14.5352" gradientUnits="userSpaceOnUse">
<stop stop-color="#192944"/>
<stop offset="1" stop-color="#CCDDFA"/>
</linearGradient>
<linearGradient id="paint1_linear" x1="27.5" y1="53.8516" x2="27.5" y2="0" gradientUnits="userSpaceOnUse">
<stop stop-color="#192944"/>
<stop offset="1" stop-color="#CCDDFA"/>
</linearGradient>
</defs>
</svg>
