<svg width="58" height="60" viewBox="0 0 58 60" fill="none" xmlns="http://www.w3.org/2000/svg">
<path d="M55.3672 0H2.63281C1.66203 0 0.875 0.787031 0.875 1.75781V58.2422C0.875 59.213 1.66203 60 2.63281 60H7.90625C9.84793 60 11.4219 58.4259 11.4219 56.4844L21.9688 60H25.4844L36.0312 56.4844C36.0312 58.4259 37.6052 60 39.5469 60H55.3672C56.338 60 57.125 59.213 57.125 58.2422V1.75781C57.125 0.787031 56.338 0 55.3672 0Z" fill="url(#paint0_linear)"/>
<path d="M13.1797 10.5469C14.1505 10.5469 14.9375 9.75984 14.9375 8.78906C14.9375 7.81828 14.1505 7.03125 13.1797 7.03125C12.2089 7.03125 11.4219 7.81828 11.4219 8.78906C11.4219 9.75984 12.2089 10.5469 13.1797 10.5469ZM20.2109 7.03125C19.2402 7.03125 18.4531 7.81828 18.4531 8.78906C18.4531 9.75984 19.2402 10.5469 20.2109 10.5469C21.1817 10.5469 21.9688 9.75984 21.9688 8.78906C21.9688 7.81828 21.1817 7.03125 20.2109 7.03125ZM27.2422 10.5469C28.213 10.5469 29 9.75984 29 8.78906C29 7.81828 28.213 7.03125 27.2422 7.03125C26.2714 7.03125 25.4844 7.81828 25.4844 8.78906C25.4844 9.75984 26.2714 10.5469 27.2422 10.5469ZM34.2734 10.5469C35.2442 10.5469 36.0312 9.75984 36.0312 8.78906C36.0312 7.81828 35.2442 7.03125 34.2734 7.03125C33.3027 7.03125 32.5156 7.81828 32.5156 8.78906C32.5156 9.75984 33.3027 10.5469 34.2734 10.5469ZM49.1222 35.4588C48.257 35.0314 47.1996 35.3747 46.7635 36.245L46.5781 36.6158L46.3927 36.245C45.9567 35.3747 44.9061 35.0279 44.0341 35.4588C43.1655 35.8931 42.8154 36.9489 43.2479 37.8175L45.0057 41.3331C45.3044 41.9288 45.912 42.3047 46.5781 42.3047C47.2442 42.3047 47.8518 41.9288 48.1505 41.3331L49.9084 37.8175C50.3409 36.9489 49.9907 35.8931 49.1222 35.4588ZM44.0341 31.5724C44.9061 32.0067 45.9602 31.6566 46.3927 30.7862L46.5781 30.4154L46.7635 30.7862C47.1922 31.6411 48.2339 32.0106 49.1222 31.5724C49.9907 31.1381 50.3409 30.0824 49.9084 29.2138L48.1505 25.6982C47.5531 24.5068 45.6031 24.5068 45.0057 25.6982L43.2479 29.2138C42.8154 30.0824 43.1655 31.1381 44.0341 31.5724ZM37.7891 14.0625H25.4844V60H39.5469V15.8203C39.5469 14.8495 38.7598 14.0625 37.7891 14.0625ZM7.90625 15.8203V60H21.9688V14.0625H9.66406C8.69328 14.0625 7.90625 14.8495 7.90625 15.8203Z" fill="#CCDDFA"/>
<defs>
<linearGradient id="paint0_linear" x1="29" y1="60" x2="29" y2="0" gradientUnits="userSpaceOnUse">
<stop stop-color="#192944"/>
<stop offset="1" stop-color="#CCDDFA"/>
</linearGradient>
</defs>
</svg>
