<svg width="18" height="32" viewBox="0 0 18 32" fill="none" xmlns="http://www.w3.org/2000/svg">
<path d="M11.0691 31.3231H6.24311C5.43702 31.3231 4.7813 30.6402 4.7813 29.8007V18.4644H1.96572C1.15963 18.4644 0.503906 17.7812 0.503906 16.942V12.0844C0.503906 11.2449 1.15963 10.562 1.96572 10.562H4.7813V8.12943C4.7813 5.7175 5.50853 3.66545 6.88412 2.19549C8.26593 0.71883 10.197 -0.0615234 12.4686 -0.0615234L16.1491 -0.0552979C16.9538 -0.0538612 17.6084 0.629038 17.6084 1.4671V5.9773C17.6084 6.81679 16.9529 7.49969 16.147 7.49969L13.669 7.50065C12.9133 7.50065 12.7208 7.65844 12.6797 7.70681C12.6118 7.78702 12.5311 8.01378 12.5311 8.63993V10.5617H15.9608C16.219 10.5617 16.4692 10.628 16.6841 10.753C17.1479 11.0229 17.4362 11.5332 17.4362 12.0846L17.4344 16.9422C17.4344 17.7812 16.7786 18.4641 15.9725 18.4641H12.5311V29.8007C12.5311 30.6402 11.8752 31.3231 11.0691 31.3231ZM6.54798 29.4832H10.7642V17.6407C10.7642 17.0801 11.2022 16.6242 11.7402 16.6242H15.6677L15.6693 12.4019H11.74C11.202 12.4019 10.7642 11.946 10.7642 11.3854V8.63993C10.7642 7.92111 10.8343 7.10365 11.3553 6.48923C11.9848 5.74647 12.9769 5.66075 13.6685 5.66075L15.8417 5.65979V1.78412L12.4672 1.77838C8.81658 1.77838 6.54798 4.2121 6.54798 8.12943V11.3854C6.54798 11.9457 6.11022 12.4019 5.57221 12.4019H2.27059V16.6242H5.57221C6.11022 16.6242 6.54798 17.0801 6.54798 17.6407V29.4832ZM16.1457 1.7846H16.1459H16.1457Z" fill="white"/>
</svg>
