<svg width="49" height="48" viewBox="0 0 49 48" fill="none" xmlns="http://www.w3.org/2000/svg">
<g clip-path="url(#clip0)">
<path d="M31.1892 14.2501C30.4714 13.5751 29.6962 12.9 28.8923 12.225C28.9497 11.9438 29.0071 11.6906 29.0933 11.4376C30.213 8.42822 34.6345 6.15947 36.4718 5.54062C36.9313 5.4 37.3046 5.00625 37.4194 4.52812C37.5343 4.07822 37.3907 3.57178 37.0174 3.23428C36.7016 2.89678 33.6296 0 30.2705 0C27.9449 0 25.7629 1.37812 24.5283 2.33428C23.2937 1.37822 21.1117 9.375e-05 18.7861 9.375e-05C15.4269 9.375e-05 12.3548 2.89687 12.0391 3.23438C11.6659 3.57188 11.5221 4.07822 11.6372 4.52822C11.7519 5.00625 12.1252 5.40009 12.5846 5.54072C12.6707 5.56884 18.6713 7.80947 19.9631 11.4377C20.0494 11.6907 20.1354 11.9721 20.1641 12.2251C19.3603 12.9001 18.585 13.5752 17.8673 14.2502C4.31588 26.5407 3.45436 34.7813 5.29196 39.6469C7.5027 45.5532 14.1924 48.0001 17.2643 48.0001H31.7922C34.8356 48.0001 41.4678 45.5251 43.7072 39.5626C45.5447 34.6969 44.6835 26.4563 31.1892 14.2501Z" fill="url(#paint0_linear)"/>
<path d="M25.9639 28.4263V22.8664C27.6143 23.2634 28.835 24.304 28.835 25.5C28.835 26.2773 29.477 26.9062 30.2705 26.9062C31.064 26.9062 31.706 26.2773 31.706 25.5C31.706 22.7831 29.236 20.5114 25.9639 19.9888V18.4688C25.9639 17.6915 25.3218 17.0625 24.5283 17.0625C23.7348 17.0625 23.0928 17.6915 23.0928 18.4688V19.9888C19.8206 20.5114 17.3506 22.7831 17.3506 25.5C17.3506 28.2169 19.8206 30.4886 23.0928 31.0112V36.5711C21.4424 36.1741 20.2217 35.1335 20.2217 33.9375C20.2217 33.1602 19.5796 32.5312 18.7861 32.5312C17.9927 32.5312 17.3506 33.1602 17.3506 33.9375C17.3506 36.6544 19.8206 38.9261 23.0928 39.4487V40.9688C23.0928 41.746 23.7348 42.375 24.5283 42.375C25.3218 42.375 25.9639 41.746 25.9639 40.9688V39.4487C29.236 38.9261 31.706 36.6544 31.706 33.9375C31.706 31.2206 29.236 28.9489 25.9639 28.4263ZM20.2217 25.5C20.2217 24.304 21.4424 23.2634 23.0928 22.8664V28.1336C21.4424 27.7366 20.2217 26.696 20.2217 25.5ZM25.9639 36.5711V31.3039C27.6143 31.7009 28.835 32.7415 28.835 33.9375C28.835 35.1335 27.6143 36.1741 25.9639 36.5711Z" fill="#CCDDFA"/>
</g>
<defs>
<linearGradient id="paint0_linear" x1="24.4999" y1="48.0001" x2="24.4999" y2="0" gradientUnits="userSpaceOnUse">
<stop stop-color="#192944"/>
<stop offset="1" stop-color="#CCDDFA"/>
</linearGradient>
<clipPath id="clip0">
<rect width="49" height="48" fill="white"/>
</clipPath>
</defs>
</svg>
