<svg width="118" height="118" viewBox="0 0 118 118" fill="none" xmlns="http://www.w3.org/2000/svg">
<path d="M58.8316 117.932C58.307 117.932 57.7825 117.812 57.3001 117.572L2.09773 89.8566C0.932985 89.2764 0.195655 88.0878 0.193365 86.7866C0.191074 85.4853 0.92451 84.2942 2.08765 83.7103L57.29 55.9946C58.2599 55.5077 59.4035 55.5077 60.3734 55.9946L115.576 83.7103C116.739 84.2942 117.472 85.4853 117.47 86.7866C117.468 88.088 116.731 89.2764 115.566 89.8566L60.3633 117.572C59.8807 117.812 59.3561 117.932 58.8316 117.932Z" fill="url(#paint0_linear)"/>
<path d="M58.8316 90.2165C58.307 90.2165 57.7825 90.0965 57.3001 89.8564L2.09773 62.3698C0.932985 61.7896 0.195655 60.601 0.193365 59.2997C0.191074 57.9982 0.92451 56.8074 2.08765 56.2235L57.29 28.5078C58.2599 28.0208 59.4035 28.0208 60.3734 28.5078L115.576 56.2235C116.739 56.8074 117.472 57.9985 117.47 59.2997C117.468 60.6012 116.731 61.7896 115.566 62.3698L60.3633 89.8564C59.8807 90.0965 59.3561 90.2165 58.8316 90.2165Z" fill="url(#paint1_linear)"/>
<path d="M58.8316 62.7302C58.307 62.7302 57.7825 62.6102 57.3001 62.3701L2.09773 34.8834C0.932985 34.3032 0.195655 33.1147 0.193365 31.8134C0.191074 30.5121 0.92451 29.3211 2.08765 28.7372L57.29 1.02148C58.2599 0.534507 59.4035 0.534507 60.3734 1.02148L115.576 28.7372C116.739 29.3211 117.472 30.5121 117.47 31.8134C117.468 33.1149 116.731 34.3032 115.566 34.8834L60.3633 62.3701C59.8807 62.6102 59.3561 62.7302 58.8316 62.7302Z" fill="url(#paint2_linear)"/>
<defs>
<linearGradient id="paint0_linear" x1="58.8317" y1="117.932" x2="58.8317" y2="55.6294" gradientUnits="userSpaceOnUse">
<stop stop-color="#192944"/>
<stop offset="1" stop-color="#CCDDFA"/>
</linearGradient>
<linearGradient id="paint1_linear" x1="58.8317" y1="90.2165" x2="58.8317" y2="28.1426" gradientUnits="userSpaceOnUse">
<stop stop-color="#192944"/>
<stop offset="1" stop-color="#CCDDFA"/>
</linearGradient>
<linearGradient id="paint2_linear" x1="58.8317" y1="62.7302" x2="58.8317" y2="0.65625" gradientUnits="userSpaceOnUse">
<stop stop-color="#192944"/>
<stop offset="1" stop-color="#CCDDFA"/>
</linearGradient>
</defs>
</svg>
