<svg width="49" height="48" viewBox="0 0 49 48" fill="none" xmlns="http://www.w3.org/2000/svg">
<path d="M24.5957 0H21.7246C20.9311 0 20.2891 0.628969 20.2891 1.40625C20.2891 2.18353 20.9311 2.8125 21.7246 2.8125H24.5957C25.3892 2.8125 26.0312 2.18353 26.0312 1.40625C26.0312 0.628969 25.3892 0 24.5957 0ZM15.9824 0H13.1113C12.3179 0 11.6758 0.628969 11.6758 1.40625C11.6758 2.18353 12.3179 2.8125 13.1113 2.8125H15.9824C16.7759 2.8125 17.418 2.18353 17.418 1.40625C17.418 0.628969 16.7759 0 15.9824 0ZM36.0801 0H30.3379C29.5444 0 28.9023 0.628969 28.9023 1.40625C28.9023 2.18353 29.5444 2.8125 30.3379 2.8125H34.6445V7.03125C34.6445 7.80853 35.2866 8.4375 36.0801 8.4375C36.8736 8.4375 37.5156 7.80853 37.5156 7.03125V1.40625C37.5156 0.628969 36.8736 0 36.0801 0ZM7.17773 0H1.43555C0.642072 0 0 0.628969 0 1.40625V7.03125C0 7.80853 0.642072 8.4375 1.43555 8.4375C2.22902 8.4375 2.87109 7.80853 2.87109 7.03125V2.8125H7.17773C7.97121 2.8125 8.61328 2.18353 8.61328 1.40625C8.61328 0.628969 7.97121 0 7.17773 0ZM7.17773 33.9375H2.87109V29.7188C2.87109 28.9415 2.22902 28.3125 1.43555 28.3125C0.642072 28.3125 0 28.9415 0 29.7188V35.3438C0 36.121 0.642072 36.75 1.43555 36.75H7.17773C7.97121 36.75 8.61328 36.121 8.61328 35.3438C8.61328 34.5665 7.97121 33.9375 7.17773 33.9375ZM1.43555 17.0625C2.22902 17.0625 2.87109 16.4335 2.87109 15.6562V12.8438C2.87109 12.0665 2.22902 11.4375 1.43555 11.4375C0.642072 11.4375 0 12.0665 0 12.8438V15.6562C0 16.4335 0.642072 17.0625 1.43555 17.0625ZM1.43555 25.5C2.22902 25.5 2.87109 24.871 2.87109 24.0938V21.2812C2.87109 20.504 2.22902 19.875 1.43555 19.875C0.642072 19.875 0 20.504 0 21.2812V24.0938C0 24.871 0.642072 25.5 1.43555 25.5Z" fill="url(#paint0_linear)"/>
<path d="M47.5645 11.4375H13.1113C12.3179 11.4375 11.6758 12.0665 11.6758 12.8438V46.5938C11.6758 47.371 12.3179 48 13.1113 48H47.5645C48.3579 48 49 47.371 49 46.5938V12.8438C49 12.0665 48.3579 11.4375 47.5645 11.4375Z" fill="#CCDDFA"/>
<defs>
<linearGradient id="paint0_linear" x1="18.7578" y1="36.75" x2="18.7578" y2="0" gradientUnits="userSpaceOnUse">
<stop stop-color="#192944"/>
<stop offset="1" stop-color="#CCDDFA"/>
</linearGradient>
</defs>
</svg>
