<svg width="61" height="61" viewBox="0 0 61 61" fill="none" xmlns="http://www.w3.org/2000/svg">
<linearGradient id="type_4_1" x1="30.5" y1="61" x2="30.5" y2="1.78711" gradientUnits="userSpaceOnUse">
<stop stop-color="#19493e"/>
<stop offset="1" stop-color="#c3e2db"/>
</linearGradient>
<linearGradient id="type_4_2" x1="30.5" y1="57.4258" x2="30.5" y2="0" gradientUnits="userSpaceOnUse">
<stop stop-color="#19493e"/>
<stop offset="1" stop-color="#c3e2db"/>
</linearGradient>
<path d="M41.8184 1.78711V42.5332C41.8184 43.5202 41.0182 44.3203 40.0312 44.3203C39.0443 44.3203 38.2441 43.5202 38.2441 42.5332V1.78711H41.8184ZM19.1816 42.5332C19.1816 43.5202 19.9818 44.3203 20.9688 44.3203C21.9557 44.3203 22.7559 43.5202 22.7559 42.5332V1.78711H19.1816V42.5332ZM61 59.2129C61 58.2259 60.1999 57.4258 59.2129 57.4258H49.6816C48.6947 57.4258 47.8945 58.2259 47.8945 59.2129C47.8945 60.1999 48.6947 61 49.6816 61H59.2129C60.1999 61 61 60.1999 61 59.2129ZM13.1055 59.2129C13.1055 58.2259 12.3053 57.4258 11.3184 57.4258H1.78711C0.800148 57.4258 0 58.2259 0 59.2129C0 60.1999 0.800148 61 1.78711 61H11.3184C12.3053 61 13.1055 60.1999 13.1055 59.2129Z" fill="url(#type_4_1)"/>
<path d="M42.4141 49.6816H18.586C17.599 49.6816 16.7989 48.8815 16.7989 47.8945V44.916C16.7989 42.6167 18.6695 40.7461 20.9688 40.7461H40.0313C42.3306 40.7461 44.2012 42.6167 44.2012 44.916V47.8945C44.2012 48.8815 43.4011 49.6816 42.4141 49.6816ZM56.0587 57.4258L50.7112 5.87661C50.3648 2.53734 47.5506 0 44.1935 0H16.8066C13.4494 0 10.6353 2.53734 10.2889 5.87661L4.94141 57.4258H8.53481L13.844 6.24535C14.0015 4.7275 15.2807 3.57422 16.8066 3.57422H44.1935C45.7194 3.57422 46.9986 4.7275 47.1561 6.24535L52.4653 57.4258H56.0587Z" fill="url(#type_4_2)"/>
</svg>
