<svg viewBox="0 0 79 69" fill="none" xmlns="http://www.w3.org/2000/svg">
<path d="M53.245 58.2251C58.4628 56.2129 63.7788 54.4653 69.1727 52.9889C70.147 52.7261 71.1334 52.5118 72.1197 52.3015C72.8514 52.1479 73.6317 51.9942 74.141 52.7423C74.5857 53.3892 74.3149 54.0604 73.9915 54.6507C72.7787 56.8705 71.0727 58.7507 68.4653 58.9205C60.9703 59.4017 54.3162 62.1916 48.1473 66.1986C42.4472 69.874 36.8604 69.9508 31.128 66.3118C26.4548 63.3399 21.6159 60.6511 16.0614 59.6887C14.4053 59.3855 12.7349 59.1669 11.0567 59.0337C8.17834 58.8316 6.42387 57.101 5.05748 54.8125C4.68152 54.1776 4.3379 53.4417 4.85535 52.7261C5.3728 52.0104 6.17727 52.0791 6.87664 52.2692C9.8075 53.0455 12.7505 53.7935 15.6329 54.7195C18.8265 55.7465 21.9676 56.9554 25.3795 57.7075C24.2031 57.012 23.0429 56.2034 21.8301 55.6009C16.3767 52.908 10.5998 51.0602 4.80684 49.2852C1.26958 48.2056 0.0931955 46.7095 0.0648975 42.9816C0.0648975 40.2766 0.824901 39.666 3.38789 40.5555C8.42955 42.2807 13.2601 44.5703 17.7875 47.3807C20.4961 49.087 23.1237 50.9268 25.8484 52.7463C26.1435 51.8568 25.4967 51.6748 25.145 51.3513C18.2524 45.0113 10.5109 39.9248 2.16299 35.7399C0.545964 34.9312 -0.0685074 33.8031 0.00830147 32.0524C0.155385 28.9232 1.3467 25.9337 3.39194 23.5613C5.28386 21.2687 6.73919 21.3617 9.05154 23.2702C16.5424 29.4767 22.5416 36.9691 27.9465 44.983C28.4316 45.7028 28.9733 46.378 29.6363 47.2756C29.9355 46.4912 29.5757 46.0626 29.3736 45.6583C25.1233 36.9288 19.6242 28.8653 13.0496 21.7216C9.49218 17.8035 8.77665 15.8587 13.3528 11.1684C15.0129 9.38697 17.0638 8.01531 19.3439 7.16141C22.578 6.0131 24.6397 7.08459 25.8121 10.2788C29.5666 20.3796 32.6272 30.725 34.9725 41.2429C35.1059 41.8413 35.0291 42.5934 36.0155 43.1837C35.5264 39.7752 35.11 36.6092 34.6127 33.4554C33.2763 24.6035 31.3957 15.8425 28.9814 7.22206C28.1123 4.20572 28.6499 3.13827 31.5323 1.82822C37.0181 -0.682711 42.4998 -0.5978 47.9088 2.0506C50.4515 3.3 50.8598 4.18954 50.1039 6.87838C46.927 18.4414 44.6176 30.2255 43.1951 42.1325C43.1628 42.3912 43.1466 42.65 43.0981 43.1676C43.9066 42.6581 43.9066 41.9909 44.0441 41.4127C46.3102 31.0124 49.3051 20.7844 53.0064 10.8045C54.4699 6.78942 56.8954 5.7705 60.7197 7.63449C63.3391 8.90096 65.6137 10.782 67.3495 13.1173C69.5082 15.9962 69.3708 17.9693 66.9129 20.646C60.1761 27.9192 54.4786 36.0902 49.9826 44.9264C49.7401 45.4076 49.5177 45.9009 49.3156 46.3982C49.2752 46.4912 49.3641 46.6368 49.4854 47.1341C51.3813 44.5019 53.1237 42.0759 54.8822 39.6458C59.0748 33.6912 64.0271 28.3098 69.6133 23.6381C72.71 21.0868 74.4281 21.39 76.5949 24.8511C77.9829 26.9317 78.8101 29.3357 78.9962 31.83C79.1255 33.9527 78.317 35.2587 76.417 36.1119C70.9838 38.5379 66.0316 41.7726 61.2614 45.3186C58.0273 47.7002 54.7933 50.0777 52.3677 53.3568C56.4346 50.4011 60.558 47.5546 65.0048 45.1892C68.5605 43.277 72.2796 41.6857 76.1178 40.4342C78.1674 39.7752 78.8223 40.3615 78.9153 42.5125C79.0891 46.4831 77.8076 48.1409 74.0642 49.3337C67.7821 51.3554 61.4393 53.2113 55.6422 56.4864C54.7933 56.9676 53.8513 57.3476 53.245 58.2251ZM48.9962 56.2438C49.0205 50.7691 45.0143 46.6125 39.6094 46.5074C38.3495 46.487 37.0982 46.7178 35.9285 47.1863C34.7588 47.6548 33.6941 48.3517 32.7965 49.2362C31.899 50.1207 31.1866 51.1752 30.7009 52.3381C30.2153 53.501 29.966 54.749 29.9678 56.0093C29.9355 61.6579 34.1034 65.9074 39.6983 65.8468C44.4039 65.8104 49.3924 61.763 48.9962 56.26V56.2438Z" fill="#19493e"/>
<path d="M58.3343 62.6317C59.256 62.6924 59.9513 62.563 60.299 63.1857C60.6467 63.8083 60.109 64.3218 59.7856 64.803C57.6147 67.973 55.5126 68.6685 51.6438 67.4999C50.3381 67.0956 50.7747 66.3354 51.3811 65.7006C53.3619 63.6264 56.022 63.1614 58.3343 62.6317Z" fill="#19493e"/>
<path d="M20.6167 62.6034C23.0423 63.1937 25.4678 63.6951 27.3719 65.4621C27.8044 65.8664 28.334 66.3192 28.0551 67.0066C27.8044 67.6172 27.1697 67.512 26.6482 67.5444C26.1268 67.5767 25.5689 67.5444 25.0312 67.6131C21.5061 67.9851 20.0346 67.2735 18.7733 64.0307C18.0861 62.2678 19.784 62.8743 20.6167 62.6034Z" fill="#19493e"/>
<path d="M39.5 63.6234C43.667 63.6234 47.045 60.2132 47.045 56.0065C47.045 51.7998 43.667 48.3896 39.5 48.3896C35.3331 48.3896 31.9551 51.7998 31.9551 56.0065C31.9551 60.2132 35.3331 63.6234 39.5 63.6234Z" fill="#19493e"/>
</svg>
