<svg width="75" height="17" viewBox="0 0 75 17" fill="none" xmlns="http://www.w3.org/2000/svg">
<path d="M23.4214 2.62767C23.284 2.11975 23.016 1.6567 22.6441 1.28464C22.2721 0.91258 21.8093 0.64449 21.3016 0.507069C19.4429 0 11.9628 0 11.9628 0C11.9628 0 4.48241 0.0153879 2.62396 0.522457C2.11629 0.6599 1.65346 0.928 1.28158 1.30006C0.909687 1.67212 0.64171 2.13516 0.50433 2.64306C-0.0578774 5.94707 -0.275993 10.9813 0.51971 14.1529C0.65709 14.6608 0.925068 15.1239 1.29696 15.4959C1.66885 15.868 2.13167 16.1361 2.63934 16.2735C4.49793 16.7806 11.9782 16.7806 11.9782 16.7806C11.9782 16.7806 19.4584 16.7806 21.317 16.2735C21.8246 16.1361 22.2875 15.868 22.6594 15.4959C23.0312 15.1239 23.2992 14.6608 23.4366 14.1529C24.0294 10.8444 24.2122 5.81327 23.4212 2.62782L23.4214 2.62767Z" fill="#FF0000"/>
<path d="M9.58203 11.9862L15.7874 8.39037L9.58203 4.79443V11.9862Z" fill="white"/>
<path d="M71.959 4.87135C72.773 4.87135 73.3874 5.02493 73.8174 5.31686C74.2475 5.60894 74.5548 6.06984 74.7391 6.70002C74.9234 7.33004 75.0002 8.19045 75.0002 9.29691V11.095H71.0527V11.648L71.1142 13.1694C71.1602 13.5075 71.2371 13.7534 71.3599 13.907C71.4829 14.0607 71.6824 14.1375 71.9436 14.1375C72.2969 14.1375 72.5427 13.9993 72.6655 13.7228C72.8038 13.4461 72.8651 12.985 72.8805 12.355L74.9234 12.478C74.9388 12.5701 74.9388 12.6931 74.9388 12.8467C74.9388 13.8148 74.6776 14.5372 74.14 15.0135C73.6024 15.4898 72.8651 15.7357 71.8975 15.7357C70.7301 15.7357 69.9161 15.3669 69.4553 14.6447C68.9946 13.9224 68.7488 12.7851 68.7488 11.2639V9.40448C68.8009 6.7922 69.2602 4.87897 71.959 4.87135ZM43.5586 5.07109V12.7699C43.5586 13.2309 43.6046 13.569 43.7121 13.7688C43.9302 14.196 44.4955 14.0868 44.8027 13.8764C44.98 13.7564 45.123 13.5923 45.2174 13.4001V5.07095H47.5674V15.5665H45.7242L45.5246 14.2757H45.4786C44.9717 15.2438 44.2189 15.7355 43.2207 15.7355C41.684 15.7317 41.308 14.6241 41.2185 13.4991L41.2127 13.4199C41.2016 13.2495 41.1951 13.0788 41.1932 12.9081V5.07109H43.5585H43.5586ZM55.6775 5.07109V12.7699C55.6775 13.2309 55.7235 13.569 55.8311 13.7688C56.0493 14.196 56.6145 14.0868 56.9216 13.8764C57.099 13.7564 57.2419 13.5923 57.3363 13.4001V5.07095H59.6864V15.5665H57.8432L57.6435 14.2757H57.5975C57.0907 15.2438 56.3379 15.7355 55.3396 15.7355C53.803 15.7317 53.427 14.6241 53.3375 13.4991L53.3316 13.4199C53.3205 13.2495 53.314 13.0788 53.3121 12.9081V5.07109H55.6775ZM36.7387 4.87135C37.5067 4.87135 38.1365 5.02493 38.5973 5.34764C39.058 5.67035 39.4113 6.16217 39.6264 6.83822C39.8414 7.51441 39.9489 8.42097 39.9489 9.54283V11.064C39.9489 12.1859 39.8414 13.0772 39.6264 13.7533C39.4113 14.4296 39.0734 14.9213 38.5973 15.244C38.1212 15.5513 37.476 15.7203 36.6773 15.7203C35.8478 15.7357 35.2027 15.5667 34.7266 15.2594C34.2505 14.9367 33.9125 14.4448 33.7129 13.7688C33.5131 13.0926 33.421 12.2013 33.421 11.0796V9.55807C33.421 8.43622 33.5285 7.51426 33.7589 6.83807C33.9894 6.14664 34.3425 5.65481 34.8341 5.34764C35.3256 5.04017 35.9553 4.8712 36.7387 4.8712V4.87135ZM63.3728 0.660767V6.1928H63.3882C63.6032 5.7933 63.8797 5.47059 64.2637 5.22468C64.6223 4.98342 65.0449 4.855 65.4771 4.85596C66.0454 4.85596 66.4755 5.00954 66.7981 5.30147C67.1206 5.60894 67.351 6.08523 67.4892 6.74604C67.6232 7.38617 67.6994 8.27149 67.7041 9.38792L67.7042 9.49681V11.1564C67.7042 12.7083 67.5046 13.861 67.1359 14.5986C66.7521 15.3362 66.1683 15.705 65.3695 15.705C64.9242 15.705 64.5248 15.5975 64.1562 15.3977C63.8302 15.2077 63.5599 14.9351 63.3725 14.6075L63.342 14.5524H63.2961L63.0503 15.5513H61.0995V0.660913H63.3728V0.660767ZM53.9725 1.19861V3.10393H51.6378V15.5665H49.3339V3.10408H46.9838V1.19876H53.9726L53.9725 1.19861ZM28.644 1.19861L28.6455 1.20447C28.6679 1.30428 28.9784 2.68553 29.32 4.29481L29.347 4.42231L29.3877 4.61503L29.4149 4.74443L29.4286 4.80935L29.4558 4.93949L29.4694 5.00471L29.4965 5.13528L29.5361 5.32624C29.7668 6.44062 29.987 7.55822 30.1187 8.35957H30.1802C30.3063 7.64073 30.4896 6.72083 30.685 5.78158L30.7362 5.53625C30.762 5.41344 30.7878 5.29063 30.8139 5.16811L30.854 4.97803C31.1194 3.73335 31.3927 2.49037 31.6739 1.24917L31.6783 1.22939L31.6853 1.19861H34.0354L31.3166 10.8952V15.5513H28.9973V10.9104H28.9819L26.2939 1.19847H28.644V1.19861ZM36.6926 6.50012C36.37 6.50012 36.155 6.66924 36.0168 7.02272C35.8786 7.37606 35.8172 7.91391 35.8172 8.66704V11.9401C35.8172 12.7085 35.8786 13.277 36.0015 13.6152C36.1244 13.9532 36.3548 14.1223 36.6926 14.1223C37.0151 14.1223 37.2456 13.9532 37.3838 13.6152C37.5221 13.277 37.5835 12.7085 37.5835 11.9401V8.66689C37.5835 7.91391 37.522 7.36067 37.3838 7.02258C37.2456 6.66924 37.0151 6.50012 36.6926 6.50012ZM63.7875 6.80759C63.6003 6.98052 63.4671 7.19375 63.3879 7.46033L63.3728 7.51441V13.4767C63.5632 13.7994 63.8336 14.0146 64.3097 14.0299C64.5555 14.0299 64.755 13.9378 64.9088 13.7534C65.0624 13.569 65.1699 13.2616 65.2313 12.8313C65.2903 12.4183 65.321 11.8494 65.3234 11.1249V9.66579C65.3234 8.83601 65.2926 8.20598 65.2466 7.76032C65.1851 7.31466 65.1085 6.99195 64.9702 6.80759C64.7029 6.42333 64.1255 6.42802 63.7875 6.80759ZM71.913 6.4541C71.6518 6.46949 71.4674 6.54628 71.3599 6.68463C71.2371 6.83822 71.1602 7.06874 71.1142 7.40684C71.069 7.73804 71.0534 8.8958 71.0527 8.94211V9.69656H72.773V9.03122V9.04397C72.772 9.27654 72.7671 8.90899 72.7566 8.45776L72.7551 8.39709C72.7455 8.00052 72.7314 7.55837 72.7116 7.40684C72.6655 7.05335 72.5886 6.80744 72.4658 6.66924C72.3429 6.5309 72.1586 6.4541 71.9128 6.4541H71.913Z" fill="black"/>
</svg>
