<svg width="66" height="66" viewBox="0 0 66 66" fill="none" xmlns="http://www.w3.org/2000/svg">
<path d="M42.668 42.5391C37.3371 42.5391 33 38.202 33 32.8711C33 27.5402 37.3371 23.2031 42.668 23.2031C43.7358 23.2031 44.6016 22.3374 44.6016 21.2695V5.80078C44.6016 2.60223 41.9993 0 38.8008 0H15.5977C12.3991 0 9.79688 2.60223 9.79688 5.80078V60.1992C9.79688 63.3978 12.3991 66 15.5977 66H38.8008C41.9993 66 44.6016 63.3978 44.6016 60.1992V44.4727C44.6016 43.4048 43.7358 42.5391 42.668 42.5391Z" fill="url(#paint0_linear)"/>
<path d="M31.0664 54.3984H23.332C22.2642 54.3984 21.3984 55.2642 21.3984 56.332C21.3984 57.3999 22.2642 58.2656 23.332 58.2656H31.0664C32.1343 58.2656 33 57.3999 33 56.332C33 55.2642 32.1343 54.3984 31.0664 54.3984ZM27.1992 11.6016C28.2671 11.6016 29.1328 10.7358 29.1328 9.66797C29.1328 8.60011 28.2671 7.73438 27.1992 7.73438C26.1314 7.73438 25.2656 8.60011 25.2656 9.66797C25.2656 10.7358 26.1314 11.6016 27.1992 11.6016ZM42.668 19.3359C35.2047 19.3359 29.1328 25.4078 29.1328 32.8711C29.1328 40.3344 35.2047 46.4062 42.668 46.4062C50.1313 46.4062 56.2031 40.3344 56.2031 32.8711C56.2031 25.4078 50.1313 19.3359 42.668 19.3359ZM44.6016 37.7051C44.6016 38.7729 43.7358 39.6387 42.668 39.6387C41.6001 39.6387 40.7344 38.7729 40.7344 37.7051V33.8379C40.7344 32.77 41.6001 31.9043 42.668 31.9043C43.7358 31.9043 44.6016 32.77 44.6016 33.8379V37.7051ZM42.668 29.9707C41.6001 29.9707 40.7344 29.105 40.7344 28.0371C40.7344 26.9692 41.6001 26.1035 42.668 26.1035C43.7358 26.1035 44.6016 26.9692 44.6016 28.0371C44.6016 29.105 43.7358 29.9707 42.668 29.9707Z" fill="url(#paint1_linear)"/>
<circle cx="42" cy="33" r="14" fill="url(#paint2_linear)"/>
<path d="M42.86 32.8L48.24 40H45.06L40.06 33.44V40H37.3V26H40.06V32.18L44.86 26H48.04L42.86 32.8Z" fill="#19493E"/>
<defs>
<linearGradient id="paint0_linear" x1="27.1992" y1="66" x2="27.1992" y2="0" gradientUnits="userSpaceOnUse">
<stop stop-color="#19493E"/>
<stop offset="1" stop-color="#C3E2DB"/>
</linearGradient>
<linearGradient id="paint1_linear" x1="38.8008" y1="58.2656" x2="38.8008" y2="7.73438" gradientUnits="userSpaceOnUse">
<stop stop-color="#19493E"/>
<stop offset="1" stop-color="#C3E2DB"/>
</linearGradient>
<linearGradient id="paint2_linear" x1="42" y1="47" x2="42" y2="19" gradientUnits="userSpaceOnUse">
<stop stop-color="#19493E"/>
<stop offset="1" stop-color="#C3E2DB"/>
</linearGradient>
</defs>
</svg>
