<svg width="49" height="48" viewBox="0 0 49 48" fill="none" xmlns="http://www.w3.org/2000/svg">
<path d="M47.4688 15.5625C47.4688 14.7852 46.8267 14.1562 46.0332 14.1562H44.5977L43.1697 12.75L41.7266 14.1562H40.291C39.4975 14.1562 38.8555 14.7852 38.8555 15.5625V25.4062H35.9844V1.40625C35.9844 0.628969 35.3423 0 34.5488 0H17.3223C16.5288 0 15.8867 0.628969 15.8867 1.40625V25.4062H4.40234V45.1875L5.83789 48H17.3223L20.1934 45.1875L21.6289 48H30.2422L35.9844 45.1875H44.5977L47.4688 42.2812V39.4688L44.5977 38.0625L47.4688 36.6562V33.8438L44.5977 32.4375L47.4688 31.0312V28.2188L44.5977 25.4062L47.4688 22.5938V15.5625Z" fill="url(#paint0_linear)"/>
<path d="M44.5977 7.125C44.5977 6.34772 43.9556 5.71875 43.1621 5.71875C42.3686 5.71875 41.7266 6.34772 41.7266 7.125V14.1562H44.5977V7.125ZM23.0645 14.1562H28.8066C29.6001 14.1562 30.2422 13.5273 30.2422 12.75C30.2422 11.9727 29.6001 11.3438 28.8066 11.3438H23.0645C22.271 11.3438 21.6289 11.9727 21.6289 12.75C21.6289 13.5273 22.271 14.1562 23.0645 14.1562ZM23.0645 8.53125H28.8066C29.6001 8.53125 30.2422 7.90228 30.2422 7.125C30.2422 6.34772 29.6001 5.71875 28.8066 5.71875H23.0645C22.271 5.71875 21.6289 6.34772 21.6289 7.125C21.6289 7.90228 22.271 8.53125 23.0645 8.53125ZM28.8066 16.9688H23.0645C22.271 16.9688 21.6289 17.5977 21.6289 18.375C21.6289 19.1523 22.271 19.7812 23.0645 19.7812H28.8066C29.6001 19.7812 30.2422 19.1523 30.2422 18.375C30.2422 17.5977 29.6001 16.9688 28.8066 16.9688ZM37.4199 28.2188H47.4688V22.5938H31.6777C30.8849 22.5938 30.2422 23.2232 30.2422 24V48H46.0332C46.826 48 47.4688 47.3704 47.4688 46.5938V42.2812H37.4199C36.6264 42.2812 35.9844 41.6523 35.9844 40.875C35.9844 40.0977 36.6264 39.4688 37.4199 39.4688H47.4688V36.6562H37.4199C36.6264 36.6562 35.9844 36.0273 35.9844 35.25C35.9844 34.4727 36.6264 33.8438 37.4199 33.8438H47.4688V31.0312H37.4199C36.6264 31.0312 35.9844 30.4023 35.9844 29.625C35.9844 28.8477 36.6264 28.2188 37.4199 28.2188ZM20.1934 22.5938H2.9668C2.17399 22.5938 1.53125 23.2232 1.53125 24V46.5938C1.53125 47.3704 2.17399 48 2.9668 48H5.83789V40.875C5.83789 40.0977 6.47996 39.4688 7.27344 39.4688H15.8867C16.6802 39.4688 17.3223 40.0977 17.3223 40.875V48H21.6289V24C21.6289 23.2232 20.9862 22.5938 20.1934 22.5938ZM15.8867 36.6562H7.27344C6.47996 36.6562 5.83789 36.0273 5.83789 35.25C5.83789 34.4727 6.47996 33.8438 7.27344 33.8438H15.8867C16.6802 33.8438 17.3223 34.4727 17.3223 35.25C17.3223 36.0273 16.6802 36.6562 15.8867 36.6562ZM15.8867 31.0312H7.27344C6.47996 31.0312 5.83789 30.4023 5.83789 29.625C5.83789 28.8477 6.47996 28.2188 7.27344 28.2188H15.8867C16.6802 28.2188 17.3223 28.8477 17.3223 29.625C17.3223 30.4023 16.6802 31.0312 15.8867 31.0312Z" fill="url(#paint1_linear)"/>
<defs>
<linearGradient id="paint0_linear" x1="25.9355" y1="48" x2="25.9355" y2="0" gradientUnits="userSpaceOnUse">
<stop stop-color="#19493E"/>
<stop offset="1" stop-color="#C3E2DB"/>
</linearGradient>
<linearGradient id="paint1_linear" x1="24.5" y1="48" x2="24.5" y2="5.71875" gradientUnits="userSpaceOnUse">
<stop stop-color="#19493E"/>
<stop offset="1" stop-color="#C3E2DB"/>
</linearGradient>
</defs>
</svg>
