<svg width="129" height="121" viewBox="0 0 129 121" fill="none" xmlns="http://www.w3.org/2000/svg">
<path d="M127.405 75.9659C109.137 57.7158 49.1547 -2.17049 53.0011 1.68945C51.5736 0.186849 49.1694 0.186849 47.742 1.68945L26.4801 22.9511L56.8312 69.2483L47.7041 60.0483C46.2491 58.5703 43.8562 58.566 42.3849 60.0373L19.1411 83.2809H7.79622V83.4604L7.67251 83.2809L7.79622 72.0113C7.79622 69.9074 6.14361 68.2548 4.03971 68.2548C1.93582 68.2548 0.283203 69.9074 0.283203 72.0113V117.089C0.283203 119.193 1.93582 120.846 4.03971 120.846C6.14361 120.846 7.79622 119.193 7.79622 117.089V105.82H41.7315C47.9673 105.82 53.0011 100.786 53.0011 94.5504C53.0011 90.9449 51.3392 87.7353 48.6881 85.6708L58.291 76.0135C59.0789 75.2199 59.4377 74.1611 59.3719 73.1243L69.3792 88.3895L98.1035 78.6927L90.1625 86.6337C88.7212 88.0749 88.6684 90.4553 90.1697 91.9566L100.838 102.551C102.303 104.002 104.673 104.01 106.142 102.54L116.737 91.9456C118.204 90.4818 118.204 88.112 116.744 86.6409L106.152 75.9754L114.066 73.3038C118.939 78.1279 122.087 81.2746 122.093 81.2776C123.56 82.7449 125.937 82.7449 127.405 81.2776C128.872 79.8141 128.872 77.4332 127.405 75.9659Z" fill="url(#paint0_linear)"/>
<path d="M76.8933 73.3639L26.4807 22.9513L15.8122 33.5449C14.3101 34.8967 14.3099 37.4516 15.8122 38.8037L79.5978 102.514C80.9504 104.016 83.505 104.017 84.8569 102.514L114.067 73.3043L76.8933 73.3639ZM53.0019 28.1901C54.469 26.723 54.469 24.3447 53.0019 22.8776C51.5349 21.4106 49.1565 21.4106 47.6895 22.8776C46.2224 24.3447 46.2224 26.723 47.6895 28.1901C49.1563 29.6571 51.5349 29.6571 53.0019 28.1901Z" fill="url(#paint1_linear)"/>
<defs>
<linearGradient id="paint0_linear" x1="64.3943" y1="120.846" x2="64.3943" y2="0.5625" gradientUnits="userSpaceOnUse">
<stop stop-color="#19493E"/>
<stop offset="1" stop-color="#C3E2DB"/>
</linearGradient>
<linearGradient id="paint1_linear" x1="64.3763" y1="103.641" x2="64.3763" y2="21.7773" gradientUnits="userSpaceOnUse">
<stop stop-color="#19493E"/>
<stop offset="1" stop-color="#C3E2DB"/>
</linearGradient>
</defs>
</svg>
