<svg width="49" height="48" viewBox="0 0 49 48" fill="none" xmlns="http://www.w3.org/2000/svg">
<g clip-path="url(#clip0)">
<path d="M24.4992 15.3761C16.5841 15.3761 10.1438 21.685 10.1438 29.4385C10.1438 37.1921 16.5841 43.501 24.4992 43.501C32.4144 43.501 38.8547 37.1921 38.8547 29.4385C38.8547 21.685 32.4144 15.3761 24.4992 15.3761ZM24.4992 13.9698C25.2927 13.9698 25.9348 13.3408 25.9348 12.5636V8.3448H27.3703C28.1638 8.3448 28.8059 7.71584 28.8059 6.93855C28.8059 6.16127 28.1638 5.5323 27.3703 5.5323H21.6281C20.8347 5.5323 20.1926 6.16127 20.1926 6.93855C20.1926 7.71584 20.8347 8.3448 21.6281 8.3448H23.0637V12.5636C23.0637 13.3408 23.7058 13.9698 24.4992 13.9698ZM13.3626 18.5291C13.9233 17.9799 13.9233 17.0899 13.3626 16.5406L9.30263 12.5636C8.74191 12.0143 7.8334 12.0143 7.27267 12.5636C6.71195 13.1128 6.71195 14.0028 7.27267 14.5521L11.3326 18.5291C11.8933 19.0784 12.8018 19.0784 13.3626 18.5291ZM37.6659 18.5291L41.7258 14.5521C42.2865 14.0028 42.2865 13.1128 41.7258 12.5636C41.1651 12.0143 40.2566 12.0143 39.6958 12.5636L35.6359 16.5406C35.0752 17.0899 35.0752 17.9799 35.6359 18.5291C36.1967 19.0784 37.1052 19.0784 37.6659 18.5291ZM11.3102 40.3713L5.97063 45.5995C5.40991 46.1487 5.40991 47.0387 5.97063 47.588C6.53145 48.1373 7.43987 48.1373 8.00059 47.588L13.3402 42.3598C13.9009 41.8105 13.9009 40.9206 13.3402 40.3713C12.7794 39.822 11.8709 39.822 11.3102 40.3713ZM37.6884 40.3713C37.1276 39.822 36.2191 39.822 35.6584 40.3713C35.0977 40.9206 35.0977 41.8105 35.6584 42.3598L40.998 47.588C41.5588 48.1373 42.4672 48.1373 43.0279 47.588C43.5887 47.0387 43.5887 46.1487 43.0279 45.5995L37.6884 40.3713ZM43.753 6.76277L41.0276 4.9294C31.2536 -1.64313 17.7449 -1.64313 7.97083 4.9294L5.24549 6.76277C4.59222 7.20227 4.42675 8.07705 4.87541 8.7183C5.32406 9.35955 6.21841 9.52446 6.87168 9.08083L9.59702 7.24746C18.4066 1.32312 30.5919 1.32312 39.4015 7.24746L42.1268 9.08083C42.7808 9.51996 43.6751 9.3589 44.1231 8.7183C44.5716 8.07705 44.4062 7.20227 43.753 6.76277Z" fill="url(#paint0_linear)"/>
<path d="M30.2422 28.0342H25.9355V23.8155C25.9355 23.0382 25.2935 22.4092 24.5 22.4092C23.7065 22.4092 23.0645 23.0382 23.0645 23.8155V29.4405C23.0645 30.2177 23.7065 30.8467 24.5 30.8467H30.2422C31.0357 30.8467 31.6777 30.2177 31.6777 29.4405C31.6777 28.6632 31.0357 28.0342 30.2422 28.0342ZM24.5 11.1592C14.2214 11.1592 5.83789 19.3717 5.83789 29.4405C5.83789 39.5091 14.2214 48.0019 24.5 48.0019C34.7786 48.0019 43.1621 39.5091 43.1621 29.4405C43.1621 19.3717 34.7786 11.1592 24.5 11.1592ZM24.5 42.0967C17.3798 42.0967 11.5801 36.4154 11.5801 29.4405C11.5801 22.4654 17.3798 16.7842 24.5 16.7842C31.6202 16.7842 37.4199 22.4654 37.4199 29.4405C37.4199 36.4155 31.6202 42.0967 24.5 42.0967ZM14.2842 7.59419C11.5112 4.87619 6.97532 4.81122 4.13438 7.59419L2.10451 9.58272C-0.703705 12.3279 -0.699302 16.7844 2.10451 19.5254C2.38492 19.8001 2.75223 19.9374 3.11944 19.9374C3.48666 19.9374 3.85406 19.8001 4.13438 19.5254L14.2842 9.58272C14.845 9.03334 14.845 8.14347 14.2842 7.59419ZM46.8955 9.58272L44.8655 7.59419C42.0674 4.85312 37.514 4.85312 34.7157 7.59419C34.155 8.14347 34.155 9.03344 34.7157 9.58272L44.8655 19.5254C45.1459 19.8001 45.5132 19.9374 45.8805 19.9374C46.2477 19.9374 46.6151 19.8001 46.8954 19.5254C49.7037 16.7801 49.6993 12.3236 46.8955 9.58272Z" fill="url(#paint1_linear)"/>
</g>
<defs>
<linearGradient id="paint0_linear" x1="24.4992" y1="47.9999" x2="24.4992" y2="0" gradientUnits="userSpaceOnUse">
<stop stop-color="#19493E"/>
<stop offset="1" stop-color="#C3E2DB"/>
</linearGradient>
<linearGradient id="paint1_linear" x1="24.5" y1="48.0019" x2="24.5" y2="5.53125" gradientUnits="userSpaceOnUse">
<stop stop-color="#19493E"/>
<stop offset="1" stop-color="#C3E2DB"/>
</linearGradient>
<clipPath id="clip0">
<rect width="49" height="48" fill="white"/>
</clipPath>
</defs>
</svg>
