<svg width="118" height="118" viewBox="0 0 118 118" fill="none" xmlns="http://www.w3.org/2000/svg">
<g clip-path="url(#clip0)">
<path d="M58.8316 117.932C58.307 117.932 57.7825 117.812 57.3001 117.572L2.09773 89.8561C0.932985 89.2759 0.195655 88.0873 0.193365 86.7861C0.191074 85.4848 0.92451 84.2937 2.08765 83.7099L57.29 55.9941C58.2599 55.5072 59.4035 55.5072 60.3734 55.9941L115.576 83.7099C116.739 84.2937 117.472 85.4848 117.47 86.7861C117.468 88.0876 116.731 89.2759 115.566 89.8561L60.3633 117.572C59.8807 117.812 59.3561 117.932 58.8316 117.932Z" fill="url(#paint0_linear)"/>
<path d="M58.8316 90.2185C58.307 90.2185 57.7825 90.0984 57.3001 89.8584L2.09773 62.3717C0.932985 61.7915 0.195655 60.603 0.193365 59.3017C0.191074 58.0002 0.92451 56.8093 2.08765 56.2255L57.29 28.5098C58.2599 28.0228 59.4035 28.0228 60.3734 28.5098L115.576 56.2255C116.739 56.8093 117.472 58.0004 117.47 59.3017C117.468 60.6032 116.731 61.7915 115.566 62.3717L60.3633 89.8584C59.8807 90.0984 59.3561 90.2185 58.8316 90.2185Z" fill="url(#paint1_linear)"/>
<path d="M58.8316 62.7302C58.307 62.7302 57.7825 62.6102 57.3001 62.3701L2.09773 34.8834C0.932985 34.3032 0.195655 33.1147 0.193365 31.8134C0.191074 30.5121 0.92451 29.3211 2.08765 28.7372L57.29 1.02148C58.2599 0.534507 59.4035 0.534507 60.3734 1.02148L115.576 28.7372C116.739 29.3211 117.472 30.5121 117.47 31.8134C117.468 33.1149 116.731 34.3032 115.566 34.8834L60.3633 62.3701C59.8807 62.6102 59.3561 62.7302 58.8316 62.7302Z" fill="url(#paint2_linear)"/>
</g>
<defs>
<linearGradient id="paint0_linear" x1="58.8317" y1="117.932" x2="58.8317" y2="55.6289" gradientUnits="userSpaceOnUse">
<stop stop-color="#19493E"/>
<stop offset="1" stop-color="#C3E2DB"/>
</linearGradient>
<linearGradient id="paint1_linear" x1="58.8317" y1="90.2185" x2="58.8317" y2="28.1445" gradientUnits="userSpaceOnUse">
<stop stop-color="#19493E"/>
<stop offset="1" stop-color="#C3E2DB"/>
</linearGradient>
<linearGradient id="paint2_linear" x1="58.8317" y1="62.7302" x2="58.8317" y2="0.65625" gradientUnits="userSpaceOnUse">
<stop stop-color="#19493E"/>
<stop offset="1" stop-color="#C3E2DB"/>
</linearGradient>
<clipPath id="clip0">
<rect width="117.276" height="117.276" fill="white" transform="translate(0.193359 0.65625)"/>
</clipPath>
</defs>
</svg>
