<svg width="60" height="60" viewBox="0 0 60 60" fill="none" xmlns="http://www.w3.org/2000/svg">
<path d="M56.3672 0H3.63281C2.66203 0 1.875 0.787031 1.875 1.75781V58.2422C1.875 59.213 2.66203 60 3.63281 60H8.90625C10.8479 60 12.4219 58.4259 12.4219 56.4844L22.9688 60H26.4844L37.0312 56.4844C37.0312 58.4259 38.6052 60 40.5469 60H56.3672C57.338 60 58.125 59.213 58.125 58.2422V1.75781C58.125 0.787031 57.338 0 56.3672 0Z" fill="url(#paint0_linear)"/>
<path d="M14.1797 10.5469C15.1505 10.5469 15.9375 9.75984 15.9375 8.78906C15.9375 7.81828 15.1505 7.03125 14.1797 7.03125C13.2089 7.03125 12.4219 7.81828 12.4219 8.78906C12.4219 9.75984 13.2089 10.5469 14.1797 10.5469ZM21.2109 7.03125C20.2402 7.03125 19.4531 7.81828 19.4531 8.78906C19.4531 9.75984 20.2402 10.5469 21.2109 10.5469C22.1817 10.5469 22.9688 9.75984 22.9688 8.78906C22.9688 7.81828 22.1817 7.03125 21.2109 7.03125ZM28.2422 10.5469C29.213 10.5469 30 9.75984 30 8.78906C30 7.81828 29.213 7.03125 28.2422 7.03125C27.2714 7.03125 26.4844 7.81828 26.4844 8.78906C26.4844 9.75984 27.2714 10.5469 28.2422 10.5469ZM35.2734 10.5469C36.2442 10.5469 37.0312 9.75984 37.0312 8.78906C37.0312 7.81828 36.2442 7.03125 35.2734 7.03125C34.3027 7.03125 33.5156 7.81828 33.5156 8.78906C33.5156 9.75984 34.3027 10.5469 35.2734 10.5469ZM50.1222 35.4588C49.257 35.0314 48.1996 35.3747 47.7635 36.245L47.5781 36.6158L47.3927 36.245C46.9567 35.3747 45.9061 35.0279 45.0341 35.4588C44.1655 35.8931 43.8154 36.9489 44.2479 37.8175L46.0057 41.3331C46.3044 41.9288 46.912 42.3047 47.5781 42.3047C48.2442 42.3047 48.8518 41.9288 49.1505 41.3331L50.9084 37.8175C51.3409 36.9489 50.9907 35.8931 50.1222 35.4588ZM45.0341 31.5724C45.9061 32.0067 46.9602 31.6566 47.3927 30.7862L47.5781 30.4154L47.7635 30.7862C48.1922 31.6411 49.2339 32.0106 50.1222 31.5724C50.9907 31.1381 51.3409 30.0824 50.9084 29.2138L49.1505 25.6982C48.5531 24.5068 46.6031 24.5068 46.0057 25.6982L44.2479 29.2138C43.8154 30.0824 44.1655 31.1381 45.0341 31.5724ZM38.7891 14.0625H26.4844V60H40.5469V15.8203C40.5469 14.8495 39.7598 14.0625 38.7891 14.0625ZM8.90625 15.8203V60H22.9688V14.0625H10.6641C9.69328 14.0625 8.90625 14.8495 8.90625 15.8203Z" fill="url(#paint1_linear)"/>
<defs>
<linearGradient id="paint0_linear" x1="30" y1="60" x2="30" y2="0" gradientUnits="userSpaceOnUse">
<stop stop-color="#19493E"/>
<stop offset="1" stop-color="#C3E2DB"/>
</linearGradient>
<linearGradient id="paint1_linear" x1="42" y1="-1.5" x2="42.5" y2="63" gradientUnits="userSpaceOnUse">
<stop stop-color="#19493E"/>
<stop offset="1" stop-color="#C3E2DB"/>
</linearGradient>
</defs>
</svg>
