<svg width="49" height="48" viewBox="0 0 49 48" fill="none" xmlns="http://www.w3.org/2000/svg">
<g clip-path="url(#clip0)">
<path d="M31.1882 14.2501C30.4705 13.5751 29.6952 12.9 28.8914 12.225C28.9487 11.9438 29.0061 11.6906 29.0923 11.4376C30.212 8.42822 34.6336 6.15947 36.4709 5.54062C36.9303 5.4 37.3036 5.00625 37.4184 4.52812C37.5334 4.07822 37.3897 3.57178 37.0165 3.23428C36.7006 2.89678 33.6286 0 30.2695 0C27.9439 0 25.7619 1.37812 24.5273 2.33428C23.2927 1.37822 21.1107 9.375e-05 18.7851 9.375e-05C15.4259 9.375e-05 12.3539 2.89687 12.0381 3.23438C11.6649 3.57188 11.5212 4.07822 11.6362 4.52822C11.7509 5.00625 12.1242 5.40009 12.5837 5.54072C12.6697 5.56884 18.6704 7.80947 19.9622 11.4377C20.0484 11.6907 20.1344 11.9721 20.1631 12.2251C19.3593 12.9001 18.584 13.5752 17.8663 14.2502C4.3149 26.5407 3.45338 34.7813 5.29098 39.6469C7.50172 45.5532 14.1915 48.0001 17.2633 48.0001H31.7913C34.8346 48.0001 41.4669 45.5251 43.7062 39.5626C45.5437 34.6969 44.6825 26.4563 31.1882 14.2501Z" fill="url(#paint0_linear)"/>
<path d="M25.9629 28.4263V22.8664C27.6133 23.2634 28.834 24.304 28.834 25.5C28.834 26.2773 29.476 26.9062 30.2695 26.9062C31.063 26.9062 31.7051 26.2773 31.7051 25.5C31.7051 22.7831 29.2351 20.5114 25.9629 19.9888V18.4688C25.9629 17.6915 25.3208 17.0625 24.5273 17.0625C23.7339 17.0625 23.0918 17.6915 23.0918 18.4688V19.9888C19.8196 20.5114 17.3496 22.7831 17.3496 25.5C17.3496 28.2169 19.8196 30.4886 23.0918 31.0112V36.5711C21.4414 36.1741 20.2207 35.1335 20.2207 33.9375C20.2207 33.1602 19.5786 32.5312 18.7852 32.5312C17.9917 32.5312 17.3496 33.1602 17.3496 33.9375C17.3496 36.6544 19.8196 38.9261 23.0918 39.4487V40.9688C23.0918 41.746 23.7339 42.375 24.5273 42.375C25.3208 42.375 25.9629 41.746 25.9629 40.9688V39.4487C29.2351 38.9261 31.7051 36.6544 31.7051 33.9375C31.7051 31.2206 29.2351 28.9489 25.9629 28.4263ZM20.2207 25.5C20.2207 24.304 21.4414 23.2634 23.0918 22.8664V28.1336C21.4414 27.7366 20.2207 26.696 20.2207 25.5ZM25.9629 36.5711V31.3039C27.6133 31.7009 28.834 32.7415 28.834 33.9375C28.834 35.1335 27.6133 36.1741 25.9629 36.5711Z" fill="url(#paint1_linear)"/>
</g>
<defs>
<linearGradient id="paint0_linear" x1="24.499" y1="48.0001" x2="24.499" y2="0" gradientUnits="userSpaceOnUse">
<stop stop-color="#19493E"/>
<stop offset="1" stop-color="#C3E2DB"/>
</linearGradient>
<linearGradient id="paint1_linear" x1="24.5273" y1="42.375" x2="24.5273" y2="17.0625" gradientUnits="userSpaceOnUse">
<stop stop-color="#19493E"/>
<stop offset="1" stop-color="#C3E2DB"/>
</linearGradient>
<clipPath id="clip0">
<rect width="49" height="48" fill="white"/>
</clipPath>
</defs>
</svg>
