<svg width="57" height="56" viewBox="0 0 57 56" fill="none" xmlns="http://www.w3.org/2000/svg">
<g clip-path="url(#clip0)">
<path d="M57 5.46875V50.5312C57 53.5468 54.5029 56 51.4336 56H46.0155C44.7857 56 43.7889 55.0208 43.7889 53.8125C43.7889 52.6042 44.7857 51.625 46.0155 51.625H51.4336C52.0476 51.625 52.5469 51.1345 52.5469 50.5312V30.2982H32.8788C31.6489 30.2982 30.6522 29.3189 30.6522 28.1107C30.6522 26.9024 31.6489 25.9232 32.8788 25.9232H52.5469V5.46875C52.5469 4.86548 52.0476 4.375 51.4336 4.375H26.2817V10.7918C26.2817 12.0001 25.2845 12.9793 24.0551 12.9793C22.8253 12.9793 21.8286 12.0001 21.8286 10.7918V4.375H5.56641C4.95236 4.375 4.45312 4.86548 4.45312 5.46875V25.8125H21.8286V19.3957C21.8286 18.1874 22.8253 17.2082 24.0551 17.2082C25.2845 17.2082 26.2817 18.1874 26.2817 19.3957V36.6039C26.2817 37.8121 25.2845 38.7914 24.0551 38.7914C22.8253 38.7914 21.8286 37.8121 21.8286 36.6039V30.1875H4.45312V50.5312C4.45312 51.1345 4.95236 51.625 5.56641 51.625H21.8286V45.2082C21.8286 43.9999 22.8253 43.0207 24.0551 43.0207C25.2845 43.0207 26.2817 43.9999 26.2817 45.2082V51.625H37.2575C38.4874 51.625 39.4841 52.6042 39.4841 53.8125C39.4841 55.0208 38.4874 56 37.2575 56H5.56641C2.49706 56 0 53.5468 0 50.5312V5.46875C0 2.45325 2.49706 0 5.56641 0H51.4336C54.5029 0 57 2.45325 57 5.46875Z" fill="url(#paint0_linear)"/>
</g>
<defs>
<linearGradient id="paint0_linear" x1="28.5" y1="56" x2="28.5" y2="0" gradientUnits="userSpaceOnUse">
<stop stop-color="#19493E"/>
<stop offset="1" stop-color="#C3E2DB"/>
</linearGradient>
<clipPath id="clip0">
<rect width="57" height="56" fill="white"/>
</clipPath>
</defs>
</svg>
