<svg width="98" height="128" viewBox="0 0 98 128" fill="none" xmlns="http://www.w3.org/2000/svg">
<path d="M48.8211 127.623C48.365 127.623 47.9088 127.539 47.4761 127.371C33.6043 121.976 21.8305 112.632 13.427 100.348C5.02374 88.0631 0.582031 73.7027 0.582031 58.8191V26.9397C0.582031 25.9554 0.973138 25.0117 1.66902 24.316L23.9332 2.05183C24.6291 1.3557 25.5728 0.964844 26.5569 0.964844H71.0853C72.0696 0.964844 73.0134 1.3557 73.709 2.05183L95.9732 24.316C96.6693 25.0117 97.0602 25.9554 97.0602 26.9397V58.8191C97.0602 73.7027 92.6185 88.0631 84.215 100.348C75.8115 112.632 64.0377 121.976 50.1659 127.371C49.7335 127.539 49.2773 127.623 48.8211 127.623Z" fill="url(#paint0_linear)"/>
<path d="M48.8209 88.8997C31.7703 88.8997 17.8984 75.0279 17.8984 57.9772C17.8984 40.9265 31.7703 27.0547 48.8209 27.0547C65.8716 27.0547 79.7434 40.9265 79.7434 57.9772C79.7434 75.0279 65.8716 88.8997 48.8209 88.8997ZM48.8209 34.4761C35.8624 34.4761 25.3198 45.0187 25.3198 57.9772C25.3198 70.9357 35.8624 81.4783 48.8209 81.4783C61.7794 81.4783 72.322 70.9357 72.322 57.9772C72.322 45.0187 61.7794 34.4761 48.8209 34.4761ZM52.5316 57.9772V45.6082C52.5316 43.5589 50.8702 41.8975 48.8209 41.8975C46.7716 41.8975 45.1102 43.5589 45.1102 45.6082V54.2665H36.4519C34.4026 54.2665 32.7412 55.9279 32.7412 57.9772C32.7412 60.0265 34.4026 61.6879 36.4519 61.6879H48.8209C50.8702 61.6879 52.5316 60.0265 52.5316 57.9772Z" fill="#F6F9FF"/>
<defs>
<linearGradient id="paint0_linear" x1="48.8211" y1="127.623" x2="48.8211" y2="0.964844" gradientUnits="userSpaceOnUse">
<stop stop-color="#19493E"/>
<stop offset="1" stop-color="#C3E2DB"/>
</linearGradient>
</defs>
</svg>
