<svg width="126" height="126" viewBox="0 0 126 126" fill="none" xmlns="http://www.w3.org/2000/svg">
<g clip-path="url(#clip0)">
<path d="M62.9495 125.595C62.5594 125.595 62.1658 125.53 61.79 125.405C33.9888 116.139 15.3066 90.2206 15.3066 60.9126V18.8258C15.3066 16.8002 16.9458 15.161 18.9715 15.161C32.6323 15.161 45.8565 11.1561 57.2234 3.57962L60.9168 1.11734C62.1479 0.294219 63.7514 0.294219 64.9826 1.11734L68.676 3.57962C80.0426 11.1563 93.2668 15.161 106.928 15.161C108.954 15.161 110.593 16.8002 110.593 18.8258V60.9126C110.593 90.2206 91.9106 116.139 64.1093 125.405C63.7333 125.531 63.3395 125.595 62.9495 125.595Z" fill="url(#paint0_linear)"/>
<path d="M62.9484 96.2757C44.7603 96.2757 29.9648 81.4802 29.9648 63.2921C29.9648 45.104 44.7603 30.3086 62.9484 30.3086C81.1365 30.3086 95.9319 45.104 95.9319 63.2921C95.9319 81.4802 81.1365 96.2757 62.9484 96.2757Z" fill="url(#paint1_linear)"/>
<path d="M51.5651 44.1721C58.3336 40.6043 66.5976 40.9538 73.1224 45.0022C75.088 46.2527 75.7434 48.9187 74.4467 50.9571C73.1966 52.9223 70.5302 53.5781 68.4918 52.2814C64.6341 49.8274 59.6518 49.6228 55.5827 51.8403C53.1398 53.0064 50.632 51.8501 49.7265 49.9554C48.7008 47.8711 49.4348 45.2705 51.5651 44.1721ZM65.2585 65.5616C63.962 67.5995 61.342 68.1826 59.3036 66.8858C57.2651 65.5891 56.6829 62.9689 57.9793 60.931C59.276 58.8925 61.8958 58.3099 63.9342 59.6067C65.9726 60.9034 66.5552 63.5231 65.2585 65.5616ZM50.1882 81.537C43.5639 77.323 39.7453 69.9855 40.1078 62.3433C40.1539 60.0205 42.1718 58.1345 44.5669 58.227C46.8891 58.2728 48.7752 60.2906 48.6832 62.686C48.5184 67.2843 50.815 71.7108 54.6732 74.1652C56.7116 75.4619 57.367 78.128 56.0703 80.1664C54.7739 82.2043 52.2261 82.8334 50.1882 81.537ZM71.7918 82.2944C69.3516 83.4605 66.8865 82.2812 65.9622 80.5286C64.8635 78.3982 65.5975 75.7977 67.7279 74.6989C69.6663 73.5806 71.3335 72.085 72.5376 70.1922C73.788 68.2265 74.4825 66.0098 74.528 63.6874C74.6208 61.2924 76.5916 59.4791 78.9871 59.5711C81.3828 59.6636 83.2422 61.5622 83.1504 63.9574C83.0647 67.7884 81.9007 71.5469 79.8168 74.8228C77.8256 77.9528 75.034 80.5736 71.7918 82.2944Z" fill="#F6F9FF"/>
</g>
<defs>
<linearGradient id="paint0_linear" x1="62.9497" y1="125.595" x2="62.9497" y2="0.5" gradientUnits="userSpaceOnUse">
<stop stop-color="#19493E"/>
<stop offset="1" stop-color="#C3E2DB"/>
</linearGradient>
<linearGradient id="paint1_linear" x1="62.9484" y1="96.2757" x2="62.9484" y2="30.3086" gradientUnits="userSpaceOnUse">
<stop stop-color="#19493E"/>
<stop offset="1" stop-color="#C3E2DB"/>
</linearGradient>
<clipPath id="clip0">
<rect width="125.095" height="125.095" fill="white" transform="translate(0.402344 0.5)"/>
</clipPath>
</defs>
</svg>
